<?xml version="1.0" encoding="UTF-8"?>
<svg version="1.1" xmlns="http://www.w3.org/2000/svg" width="333" height="274">
<path d="M0 0 C109.89 0 219.78 0 333 0 C333 90.42 333 180.84 333 274 C223.11 274 113.22 274 0 274 C0 183.58 0 93.16 0 0 Z " fill="#0C0B0B" transform="translate(0,0)"/>
<path d="M0 0 C0.94547699 -0.00785522 1.89095398 -0.01571045 2.86508179 -0.02380371 C31.38238596 -0.20906781 53.6267951 6.96515703 78.6875 20.0625 C79.37352295 20.41852295 80.0595459 20.7745459 80.76635742 21.14135742 C85.31942355 23.55994704 89.41224571 26.31558272 93.5625 29.375 C94.5525 30.035 95.5425 30.695 96.5625 31.375 C92.65858197 31.64516734 90.79854176 31.223899 87.6875 28.875 C83.58452844 25.97676002 79.36709824 23.53830035 74.9375 21.1875 C74.00574951 20.68863281 74.00574951 20.68863281 73.05517578 20.1796875 C68.96996221 18.02513483 64.82803751 16.14591082 60.5625 14.375 C63.74494792 19.24812338 67.04369049 22.86347185 71.4921875 26.6015625 C74.68713671 29.33836805 77.74026756 32.25290536 80.5625 35.375 C80.5625 35.705 80.5625 36.035 80.5625 36.375 C51.87783915 36.50997198 23.23556014 36.20867388 -5.4375 35.375 C-5.7675 34.715 -6.0975 34.055 -6.4375 33.375 C19.6325 33.375 45.7025 33.375 72.5625 33.375 C61.80824298 20.82836681 45.40973218 10.7909093 28.55029297 9.18310547 C15.09338142 8.2348495 4.46041897 10.26094195 -6.4375 18.75 C-10.51393723 22.29240615 -13.47815446 25.88825031 -16.4375 30.375 C-17.0975 30.375 -17.7575 30.375 -18.4375 30.375 C-18.1075 29.055 -17.7775 27.735 -17.4375 26.375 C-19.79857699 27.7031058 -22.00499048 28.94972932 -23.94543457 30.85769653 C-29.2972628 35.84770277 -34.34604828 36.06613936 -41.40661621 35.90231323 C-42.82318568 35.84960225 -44.23972999 35.79621142 -45.65625 35.7421875 C-47.12449327 35.7085069 -48.59280144 35.67755486 -50.06115723 35.64920044 C-53.9024895 35.56776541 -57.7418205 35.44958734 -61.58190918 35.32342529 C-65.50979657 35.2009905 -69.43845348 35.11374735 -73.3671875 35.0234375 C-81.05846443 34.84150001 -88.7479674 34.62069368 -96.4375 34.375 C-96.4375 34.045 -96.4375 33.715 -96.4375 33.375 C-84.95789568 31.62016783 -73.56328045 31.23590187 -61.9765625 31.6640625 C-60.16799294 31.71826118 -58.35939865 31.77164054 -56.55078125 31.82421875 C-53.79030007 31.90452545 -51.03555262 32.00145061 -48.27783203 32.14990234 C-37.08869378 33.07768353 -37.08869378 33.07768353 -26.94824219 29.23339844 C-24.08319748 26.45828349 -21.69500504 23.64020608 -19.4375 20.375 C-18.82948547 19.51320129 -18.22147095 18.65140259 -17.59503174 17.76348877 C-15.86667273 15.30689804 -14.14850959 12.84369278 -12.4375 10.375 C-19.98166422 10.46761242 -27.52551737 10.5749618 -35.06933594 10.69238281 C-37.63374113 10.73058021 -40.19819821 10.76544894 -42.76269531 10.796875 C-46.45656839 10.84272602 -50.15008709 10.90068817 -53.84375 10.9609375 C-54.9836438 10.97248871 -56.1235376 10.98403992 -57.29797363 10.99594116 C-66.06817905 11.15721708 -72.93860056 11.91330393 -80.3125 17.0625 C-83.1171875 19.01171875 -83.1171875 19.01171875 -85.4375 20.375 C-86.0975 20.045 -86.7575 19.715 -87.4375 19.375 C-90.88886126 19.83891467 -93.05984831 21.34758571 -95.82421875 23.39453125 C-106.87291934 31.33027095 -115.92319913 36.56310281 -129.4375 38.375 C-130.63375 38.55675781 -131.83 38.73851562 -133.0625 38.92578125 C-135.24362531 39.25648428 -137.4258715 39.57991313 -139.609375 39.89453125 C-143.76011184 40.59969787 -147.50103362 41.91469795 -151.4375 43.375 C-152.84543999 43.86332087 -154.25439869 44.34870916 -155.6640625 44.83203125 C-157.21364468 45.36688915 -158.76312277 45.9020487 -160.3125 46.4375 C-161.43833496 46.82373535 -161.43833496 46.82373535 -162.58691406 47.21777344 C-165.83789296 48.35642622 -168.55675233 49.45450155 -171.4375 51.375 C-172.02437784 54.72113512 -172.02437784 54.72113512 -172.125 58.5 C-172.19074219 59.78132813 -172.25648438 61.06265625 -172.32421875 62.3828125 C-172.36160156 63.37023437 -172.39898437 64.35765625 -172.4375 65.375 C-173.4275 65.375 -174.4175 65.375 -175.4375 65.375 C-175.7675 64.055 -176.0975 62.735 -176.4375 61.375 C-177.78841528 64.07683055 -177.77608058 66.49308206 -178 69.5 C-178.08378906 70.59570312 -178.16757813 71.69140625 -178.25390625 72.8203125 C-178.31449219 73.66335937 -178.37507813 74.50640625 -178.4375 75.375 C-177.2309375 75.8390625 -177.2309375 75.8390625 -176 76.3125 C-173.4375 77.375 -173.4375 77.375 -172.4375 78.375 C-172.19869403 85.89738806 -172.19869403 85.89738806 -173.4375 88.375 C-174.4275 88.375 -175.4175 88.375 -176.4375 88.375 C-176.1075 85.405 -175.7775 82.435 -175.4375 79.375 C-176.4275 79.375 -177.4175 79.375 -178.4375 79.375 C-178.7675 83.995 -179.0975 88.615 -179.4375 93.375 C-178.42171875 93.36339844 -177.4059375 93.35179687 -176.359375 93.33984375 C-174.96875187 93.33044765 -173.57812671 93.32134944 -172.1875 93.3125 C-171.19363281 93.29993164 -171.19363281 93.29993164 -170.1796875 93.28710938 C-166.17037731 93.26819753 -162.2481225 93.46705345 -158.2578125 93.86132812 C-150.05854041 94.56163167 -141.86426415 94.6059919 -133.640625 94.69140625 C-131.95383251 94.71202662 -130.26704458 94.73302422 -128.58026123 94.75437927 C-124.18114979 94.80907601 -119.78199588 94.85871205 -115.3828125 94.90722656 C-110.87756658 94.95782896 -106.3723809 95.01331097 -101.8671875 95.06835938 C-93.05734288 95.1752981 -84.24744724 95.27688055 -75.4375 95.375 C-75.46070312 94.43398437 -75.48390625 93.49296875 -75.5078125 92.5234375 C-75.52585937 91.27820313 -75.54390625 90.03296875 -75.5625 88.75 C-75.58570312 87.52023438 -75.60890625 86.29046875 -75.6328125 85.0234375 C-75.43952218 81.41277434 -74.73725432 78.72785188 -73.4375 75.375 C-73.20289062 74.66214844 -72.96828125 73.94929688 -72.7265625 73.21484375 C-70.20839066 66.00102207 -66.38655642 61.66667445 -59.94140625 57.546875 C-54.6603204 55.07522796 -49.68239034 55.67072068 -44.25 57.375 C-39.40569154 60.81984157 -34.47797431 65.6774437 -32.4375 71.375 C-32.26920848 74.14467902 -32.20190784 76.79750152 -32.25 79.5625 C-32.25644531 80.31974365 -32.26289063 81.0769873 -32.26953125 81.85717773 C-32.34134032 87.08633632 -32.68411226 92.19545928 -33.4375 97.375 C-32.83808594 97.3028125 -32.23867187 97.230625 -31.62109375 97.15625 C-20.58463212 96.02591538 -9.51799156 96.28346061 1.5625 96.375 C1.5625 96.705 1.5625 97.035 1.5625 97.375 C-11.4786229 98.74334441 -24.32215846 99.68809834 -37.4375 99.375 C-37.7675 98.715 -38.0975 98.055 -38.4375 97.375 C-39.4275 97.87 -39.4275 97.87 -40.4375 98.375 C-41.08963292 100.39963255 -41.08963292 100.39963255 -41.4375 102.375 C-42.0975 102.375 -42.7575 102.375 -43.4375 102.375 C-43.69144531 102.97699219 -43.94539062 103.57898438 -44.20703125 104.19921875 C-46.2959681 107.89298963 -49.58244663 109.75657219 -53.4375 111.375 C-56.94996786 111.26169459 -59.31229486 110.93760257 -62.4375 109.375 C-62.4375 108.715 -62.4375 108.055 -62.4375 107.375 C-61.77363281 107.42140625 -61.10976562 107.4678125 -60.42578125 107.515625 C-54.84223646 107.74440343 -54.84223646 107.74440343 -49.625 106 C-42.40760808 97.3391297 -41.42762492 89.21899748 -42.22802734 78.29541016 C-42.73429355 73.65404656 -43.84068344 69.41199473 -46.76953125 65.67578125 C-49.46581288 63.57306045 -51.90528258 63.9094265 -55.2109375 64.01171875 C-58.47364855 64.54405582 -60.20752644 66.0056531 -62.4375 68.375 C-62.7675 69.035 -63.0975 69.695 -63.4375 70.375 C-66 71 -66 71 -68.4375 71.375 C-70.48289759 79.23498698 -71.81867842 86.77178948 -72.2265625 94.890625 C-72.4375 97.375 -72.4375 97.375 -73.4375 98.375 C-75.01350053 98.47913347 -76.59416124 98.51353766 -78.17358398 98.52026367 C-79.19507034 98.52655792 -80.2165567 98.53285217 -81.26899719 98.53933716 C-82.39581406 98.54053558 -83.52263092 98.54173401 -84.68359375 98.54296875 C-85.85766281 98.54706757 -87.03173187 98.55116638 -88.24137878 98.5553894 C-92.11928122 98.56506176 -95.9970871 98.56489944 -99.875 98.5625 C-101.84626862 98.56308914 -101.84626862 98.56308914 -103.85736084 98.56369019 C-122.94131496 98.56233563 -141.99229156 98.21890221 -161.0625 97.4375 C-162.14965302 97.39402435 -163.23680603 97.35054871 -164.35690308 97.30575562 C-167.39716898 97.18124168 -170.43688397 97.04820693 -173.4765625 96.91015625 C-174.37787399 96.87155487 -175.27918549 96.83295349 -176.20780945 96.79318237 C-182.31978686 96.49271314 -182.31978686 96.49271314 -183.4375 95.375 C-183.53713146 93.80853035 -183.56830511 92.23760233 -183.5703125 90.66796875 C-183.57248779 89.6941626 -183.57466309 88.72035645 -183.5769043 87.71704102 C-183.57215088 86.67604248 -183.56739746 85.63504395 -183.5625 84.5625 C-183.55633667 82.98650024 -183.55633667 82.98650024 -183.55004883 81.37866211 C-183.39818977 60.29637954 -183.39818977 60.29637954 -179.4375 52.375 C-170.69643058 44.43984479 -158.67265756 40.29437165 -147.4375 37.375 C-146.78378418 37.20371582 -146.13006836 37.03243164 -145.45654297 36.85595703 C-137.94965056 34.91376173 -130.82386285 33.36008518 -123.0625 32.875 C-113.57618678 31.73424082 -106.76047937 26.3289005 -99.015625 21.07128906 C-94.56263444 18.14142368 -89.94468944 15.50892558 -85.3125 12.875 C-84.46026855 12.38338379 -83.60803711 11.89176758 -82.72998047 11.38525391 C-80.31754014 10.01165442 -77.88208052 8.69030869 -75.4375 7.375 C-74.79095459 6.98924805 -74.14440918 6.60349609 -73.47827148 6.20605469 C-65.63128376 2.00482117 -56.44849423 2.15891432 -47.75 1.625 C-46.84587372 1.56495789 -45.94174744 1.50491577 -45.01022339 1.4430542 C-30.01374022 0.45791362 -15.0268629 0.06133982 0 0 Z " fill="#DADBDD" transform="translate(199.4375,66.625)"/>
<path d="M0 0 C91.08 0 182.16 0 276 0 C276 0.99 276 1.98 276 3 C244.65 3 213.3 3 181 3 C181 3.99 181 4.98 181 6 C180.34 6 179.68 6 179 6 C179 6.99 179 7.98 179 9 C179.99 9.33 180.98 9.66 182 10 C182 10.99 182 11.98 182 13 C182.94875 12.484375 183.8975 11.96875 184.875 11.4375 C185.90625 10.963125 186.9375 10.48875 188 10 C188.99 10.495 188.99 10.495 190 11 C187.8125 13.0625 187.8125 13.0625 185 15 C182.1875 14.75 182.1875 14.75 180 14 C180 13.01 180 12.02 180 11 C179.01 11 178.02 11 177 11 C176.67 12.32 176.34 13.64 176 15 C175.34 15 174.68 15 174 15 C174 13.68 174 12.36 174 11 C173.34 11 172.68 11 172 11 C171.67 12.32 171.34 13.64 171 15 C169.20866022 15.05391993 167.41686101 15.09275571 165.625 15.125 C164.62726563 15.14820313 163.62953125 15.17140625 162.6015625 15.1953125 C160 15 160 15 158 13 C154.90073181 13.32198966 154.90073181 13.32198966 152 14 C151.67 12.68 151.34 11.36 151 10 C151.66 10 152.32 10 153 10 C153 10.66 153 11.32 153 12 C153.54011719 11.68289062 154.08023438 11.36578125 154.63671875 11.0390625 C157.44112412 9.80605121 159.7603644 9.58657294 162.8125 9.375 C163.86566406 9.30152344 164.91882813 9.22804687 166.00390625 9.15234375 C169.34909553 8.98224938 172.65207584 8.92391081 176 9 C176.66 7.02 177.32 5.04 178 3 C164.8 3 151.6 3 138 3 C137.67 5.31 137.34 7.62 137 10 C138.98 10 140.96 10 143 10 C143 10.99 143 11.98 143 13 C142.34 13 141.68 13 141 13 C141 13.66 141 14.32 141 15 C135.72 15 130.44 15 125 15 C126 11 126 11 127 10 C129.33297433 9.95907063 131.66705225 9.95758277 134 10 C134.33 7.69 134.66 5.38 135 3 C122.79 3 110.58 3 98 3 C98 3.99 98 4.98 98 6 C97.34 6 96.68 6 96 6 C96 6.66 96 7.32 96 8 C100.55193858 9.84245133 103.23259814 9.91290674 108 9 C109.67654729 9.27942455 111.34608154 9.60828247 113 10 C114.32 10 115.64 10 117 10 C117 11.65 117 13.3 117 15 C116.34 15 115.68 15 115 15 C115 14.01 115 13.02 115 12 C113.88625 12.495 112.7725 12.99 111.625 13.5 C106.73380807 15.36706789 102.1692808 15.28600529 97 15 C97.33 13.68 97.66 12.36 98 11 C96.01508358 11.26676204 96.01508358 11.26676204 94 12 C93.67 12.99 93.34 13.98 93 15 C88.6835078 15.76173392 85.25566547 16.16063604 81 15 C81 14.01 81 13.02 81 12 C88.28571429 8.57142857 88.28571429 8.57142857 93 9 C93.66 7.35 94.32 5.7 95 4 C82.79 3.67 70.58 3.34 58 3 C57.34 4.65 56.68 6.3 56 8 C55.02763513 9.6829392 54.03435556 11.35443434 53 13 C55.97 13 58.94 13 62 13 C58.38863788 14.80568106 57.455469 15.24851563 53.75 15.125 C52.5125 15.08375 51.275 15.0425 50 15 C50.53115106 10.48521602 52.36620292 7.65333143 55 4 C47.76020153 3.25955926 40.57595201 2.81784349 33.30078125 2.68359375 C32.3397197 2.66281265 31.37865814 2.64203156 30.38847351 2.62062073 C27.36321114 2.55601347 24.33787328 2.49666006 21.3125 2.4375 C19.2428312 2.39422997 17.17316962 2.35061321 15.10351562 2.30664062 C10.06908483 2.20042531 5.03457927 2.09891681 0 2 C0 1.34 0 0.68 0 0 Z " fill="#929394" transform="translate(29,187)"/>
<path d="M0 0 C2.84456043 0.00466482 5.68869671 -0.00243279 8.53320312 -0.02050781 C44.52634438 -0.24692616 44.52634438 -0.24692616 61.81298828 7.13208008 C64.93257397 8.42625433 64.93257397 8.42625433 68.59033203 9.13598633 C73.95989503 10.41551733 78.60374518 13.02989756 83.43798828 15.62817383 C84.79827148 16.33876953 84.79827148 16.33876953 86.18603516 17.0637207 C91.39011 19.82237096 96.15962096 22.78939466 100.87548828 26.31567383 C101.86548828 26.97567383 102.85548828 27.63567383 103.87548828 28.31567383 C99.97157025 28.58584117 98.11153004 28.16457283 95.00048828 25.81567383 C90.89751672 22.91743385 86.68008652 20.47897418 82.25048828 18.12817383 C81.62932129 17.7955957 81.0081543 17.46301758 80.36816406 17.12036133 C76.28295049 14.96580866 72.14102579 13.08658465 67.87548828 11.31567383 C71.0579362 16.18879721 74.35667877 19.80414568 78.80517578 23.54223633 C82.000125 26.27904188 85.05325584 29.19357919 87.87548828 32.31567383 C87.87548828 32.64567383 87.87548828 32.97567383 87.87548828 33.31567383 C59.19082743 33.45064581 30.54854842 33.14934771 1.87548828 32.31567383 C1.38048828 31.32567383 1.38048828 31.32567383 0.87548828 30.31567383 C26.94548828 30.31567383 53.01548828 30.31567383 79.87548828 30.31567383 C69.12123126 17.76904064 52.72272046 7.73158313 35.86328125 6.1237793 C22.4063697 5.17552332 11.77340725 7.20161578 0.87548828 15.69067383 C-3.20094895 19.23307998 -6.16516618 22.82892414 -9.12451172 27.31567383 C-9.78451172 27.31567383 -10.44451172 27.31567383 -11.12451172 27.31567383 C-10.79451172 25.99567383 -10.46451172 24.67567383 -10.12451172 23.31567383 C-10.78451172 22.98567383 -11.44451172 22.65567383 -12.12451172 22.31567383 C-11.17407798 20.976698 -10.21392025 19.64461955 -9.24951172 18.31567383 C-8.71583984 17.57317383 -8.18216797 16.83067383 -7.63232422 16.06567383 C-7.13474609 15.48817383 -6.63716797 14.91067383 -6.12451172 14.31567383 C-5.46451172 14.31567383 -4.80451172 14.31567383 -4.12451172 14.31567383 C-3.87701172 13.59379883 -3.62951172 12.87192383 -3.37451172 12.12817383 C-2.12451172 9.31567383 -2.12451172 9.31567383 1.87548828 4.31567383 C-15.94451172 4.31567383 -33.76451172 4.31567383 -52.12451172 4.31567383 C-49.03520773 1.22636984 -45.19921835 1.56541003 -41.02294922 1.21020508 C-40.05916351 1.12632034 -39.09537781 1.04243561 -38.10238647 0.95600891 C-25.42088844 -0.03208655 -12.71165978 -0.02257031 0 0 Z " fill="#292829" transform="translate(192.12451171875,69.684326171875)"/>
<path d="M0 0 C0.94583954 -0.0080365 1.89167908 -0.016073 2.86618042 -0.02435303 C24.06766582 -0.16163332 43.65670349 2.16921604 62.5625 12.375 C59.5625 13.375 59.5625 13.375 57.35546875 12.484375 C56.06576172 11.81148437 56.06576172 11.81148437 54.75 11.125 C48.23043023 8.00392936 41.64639063 6.6305878 34.5625 5.375 C33.16862061 5.11410835 33.16862061 5.11410835 31.74658203 4.84794617 C28.56609866 4.37553453 25.56902561 4.2413222 22.35546875 4.22973633 C21.14560303 4.22335648 19.9357373 4.21697662 18.68920898 4.21040344 C17.38927002 4.20929062 16.08933105 4.2081778 14.75 4.20703125 C13.37638313 4.20380858 12.00276659 4.20044379 10.62915039 4.19694519 C7.74429535 4.19096456 4.85947017 4.1891036 1.97460938 4.18969727 C-1.65294058 4.18979746 -5.28028844 4.17629075 -8.90779114 4.15892506 C-11.75326337 4.1475723 -14.59869084 4.14578519 -17.44418335 4.14630699 C-19.40982533 4.14460914 -21.37545333 4.13389965 -23.34106445 4.12275696 C-34.89634988 4.15096558 -45.77340226 5.31462748 -57.4375 6.375 C-40.2775 6.705 -23.1175 7.035 -5.4375 7.375 C-8.40308293 13.30616587 -11.71300541 17.75549418 -16.4375 22.375 C-18.69112318 24.92828528 -20.93089377 27.49234701 -23.15625 30.0703125 C-26.38417084 33.33139691 -28.90032313 35.21529027 -33.54438782 35.69779968 C-34.70576767 35.67337296 -35.86714752 35.64894623 -37.0637207 35.6237793 C-37.70818649 35.61446381 -38.35265228 35.60514832 -39.01664734 35.59555054 C-41.13274433 35.56135694 -43.24766463 35.5054375 -45.36328125 35.44921875 C-46.83584639 35.42116661 -48.30843808 35.39447823 -49.78105164 35.36909485 C-53.64637902 35.29881706 -57.51106808 35.21007218 -61.37591553 35.11743164 C-65.32395918 35.02608168 -69.2723267 34.95226286 -73.22070312 34.87695312 C-80.96005785 34.72675861 -88.69882202 34.55704664 -96.4375 34.375 C-96.4375 34.045 -96.4375 33.715 -96.4375 33.375 C-84.95789568 31.62016783 -73.56328045 31.23590187 -61.9765625 31.6640625 C-60.16799294 31.71826118 -58.35939865 31.77164054 -56.55078125 31.82421875 C-53.79030007 31.90452545 -51.03555262 32.00145061 -48.27783203 32.14990234 C-37.08869378 33.07768353 -37.08869378 33.07768353 -26.94824219 29.23339844 C-24.08319748 26.45828349 -21.69500504 23.64020608 -19.4375 20.375 C-18.82948547 19.51320129 -18.22147095 18.65140259 -17.59503174 17.76348877 C-15.86667273 15.30689804 -14.14850959 12.84369278 -12.4375 10.375 C-19.98166422 10.46761242 -27.52551737 10.5749618 -35.06933594 10.69238281 C-37.63374113 10.73058021 -40.19819821 10.76544894 -42.76269531 10.796875 C-46.45656839 10.84272602 -50.15008709 10.90068817 -53.84375 10.9609375 C-54.9836438 10.97248871 -56.1235376 10.98403992 -57.29797363 10.99594116 C-63.36473153 11.10750319 -68.6155596 11.67159809 -74.4375 13.375 C-76.7669491 13.77958078 -79.09054408 14.08163051 -81.4375 14.375 C-80.51089564 11.14508275 -79.8128933 9.64941053 -77.06420898 7.64013672 C-67.26607647 2.97614144 -58.21692728 2.06544074 -47.5 1.5 C-45.67242744 1.38748649 -43.84487245 1.2746871 -42.01733398 1.16162109 C-28.02147447 0.35023409 -14.017318 0.06666462 0 0 Z " fill="#D5D7D9" transform="translate(199.4375,66.625)"/>
<path d="M0 0 C5.37298234 2.3857265 7.69478758 5.49368248 10.87109375 10.3515625 C11.53109375 10.3515625 12.19109375 10.3515625 12.87109375 10.3515625 C14.45746094 13.52429687 14.01681448 16.93334939 13.99609375 20.4140625 C13.99416016 21.18032959 13.99222656 21.94659668 13.99023438 22.73608398 C13.95000661 28.00647962 13.63053778 33.13038479 12.87109375 38.3515625 C13.47050781 38.279375 14.06992188 38.2071875 14.6875 38.1328125 C25.72396163 37.00247788 36.79060219 37.26002311 47.87109375 37.3515625 C47.87109375 37.6815625 47.87109375 38.0115625 47.87109375 38.3515625 C34.82997085 39.71990691 21.98643529 40.66466084 8.87109375 40.3515625 C8.54109375 39.6915625 8.21109375 39.0315625 7.87109375 38.3515625 C6.88109375 38.8465625 6.88109375 38.8465625 5.87109375 39.3515625 C5.21896083 41.37619505 5.21896083 41.37619505 4.87109375 43.3515625 C4.21109375 43.3515625 3.55109375 43.3515625 2.87109375 43.3515625 C2.61714844 43.95355469 2.36320312 44.55554688 2.1015625 45.17578125 C0.01262565 48.86955213 -3.27385288 50.73313469 -7.12890625 52.3515625 C-10.64137411 52.23825709 -13.00370111 51.91416507 -16.12890625 50.3515625 C-16.12890625 49.6915625 -16.12890625 49.0315625 -16.12890625 48.3515625 C-15.46503906 48.39796875 -14.80117187 48.444375 -14.1171875 48.4921875 C-8.53364271 48.72096593 -8.53364271 48.72096593 -3.31640625 46.9765625 C3.90098567 38.3156922 4.88096883 30.19555998 4.08056641 19.27197266 C3.5743002 14.63060906 2.46791031 10.38855723 -0.4609375 6.65234375 C-3.15721913 4.54962295 -5.59668883 4.885989 -8.90234375 4.98828125 C-12.1650548 5.52061832 -13.89893269 6.9822156 -16.12890625 9.3515625 C-16.45890625 10.0115625 -16.78890625 10.6715625 -17.12890625 11.3515625 C-19.69140625 11.9765625 -19.69140625 11.9765625 -22.12890625 12.3515625 C-20.76815347 6.7384573 -16.50269431 3.74124825 -12.12890625 0.3515625 C-8.29603691 -1.56487217 -4.00921508 -1.22115542 0 0 Z " fill="#1E1E1E" transform="translate(153.12890625,125.6484375)"/>
<path d="M0 0 C6.76981756 5.33162452 12.52998681 11.37296797 18 18 C-10.68466085 18.13497198 -39.32693986 17.83367388 -68 17 C-68.33 16.34 -68.66 15.68 -69 15 C-42.93 15 -16.86 15 10 15 C-0.75425702 2.45336681 -17.15276782 -7.5840907 -34.01220703 -9.19189453 C-47.66286475 -10.15380304 -58.29867397 -8.09364498 -69.1875 0.75 C-70.06792969 1.52859375 -70.94835937 2.3071875 -71.85546875 3.109375 C-74 5 -74 5 -76 6 C-72.56722823 -2.13694048 -63.73758358 -7.44134786 -55.9765625 -10.90234375 C-36.95419302 -17.94646351 -15.89172378 -11.15623027 0 0 Z " fill="#BFC0C2" transform="translate(262,85)"/>
<path d="M0 0 C-0.3125 1.875 -0.3125 1.875 -1 4 C-4.31468228 6.20978819 -6.60174356 6.56409256 -10.453125 7.14453125 C-14.24709805 8.41888723 -17.22937634 10.07598093 -20 13 C-21.43030702 16.00856454 -22.09638134 19.05707374 -22.75 22.3125 C-23.1156548 23.95535331 -23.48541404 25.59729873 -23.859375 27.23828125 C-24.13104492 28.43638428 -24.13104492 28.43638428 -24.40820312 29.65869141 C-25.30902844 33.22260015 -26.46750217 36.65765835 -28 40 C-28.60533569 41.33708008 -28.60533569 41.33708008 -29.22290039 42.70117188 C-31 45 -31 45 -33.72729492 45.56762695 C-34.80084229 45.54144287 -35.87438965 45.51525879 -36.98046875 45.48828125 C-38.14384766 45.47216797 -39.30722656 45.45605469 -40.50585938 45.43945312 C-42.32827148 45.37661133 -42.32827148 45.37661133 -44.1875 45.3125 C-45.41404297 45.28994141 -46.64058594 45.26738281 -47.90429688 45.24414062 C-50.93741559 45.18513053 -53.96810222 45.10284592 -57 45 C-53.69711664 42.79807776 -52.72537273 42.76040032 -48.89453125 42.8046875 C-47.91162109 42.81113281 -46.92871094 42.81757813 -45.91601562 42.82421875 C-44.89185547 42.84097656 -43.86769531 42.85773438 -42.8125 42.875 C-41.77673828 42.88402344 -40.74097656 42.89304688 -39.67382812 42.90234375 C-37.11565315 42.9259214 -34.55794252 42.9588297 -32 43 C-31.85506104 42.25274658 -31.71012207 41.50549316 -31.56079102 40.7355957 C-30.83187977 37.17989239 -29.88585308 33.68936914 -28.9375 30.1875 C-28.75123047 29.49462891 -28.56496094 28.80175781 -28.37304688 28.08789062 C-27.91678802 26.39154359 -27.45859046 24.6957182 -27 23 C-27.66 23 -28.32 23 -29 23 C-29.03996094 23.61488281 -29.07992187 24.22976562 -29.12109375 24.86328125 C-29.45970193 27.48435938 -29.90963265 29.58745491 -31 32 C-33.76031518 33.96431732 -36.70043602 34.42454862 -40 35 C-41.63775391 35.30164063 -41.63775391 35.30164063 -43.30859375 35.609375 C-48.24117122 36.43800322 -52.99017599 37.12060687 -58 37 C-55.78584534 34.78584534 -54.7215569 34.48147225 -51.75390625 33.7109375 C-50.91666016 33.49179688 -50.07941406 33.27265625 -49.21679688 33.046875 C-48.34087891 32.82515625 -47.46496094 32.6034375 -46.5625 32.375 C-45.69044922 32.14554688 -44.81839844 31.91609375 -43.91992188 31.6796875 C-37.41613188 30 -37.41613188 30 -34 30 C-33.87625 28.96875 -33.7525 27.9375 -33.625 26.875 C-33.06110186 23.37883154 -32.21317941 20.31602373 -31 17 C-29.906875 16.979375 -28.81375 16.95875 -27.6875 16.9375 C-25.8621875 16.4734375 -25.8621875 16.4734375 -24 16 C-22.91698965 13.70401807 -21.92203709 11.36522558 -21 9 C-19.1020563 7.2987344 -17.24742383 6.24856879 -15 5 C-28.15059708 7.23262856 -28.15059708 7.23262856 -40 13 C-38.47228712 9.72632954 -37.36008759 7.54375515 -33.86450195 6.14624023 C-32.99784912 5.86981689 -32.13119629 5.59339355 -31.23828125 5.30859375 C-30.28373047 5.00373047 -29.32917969 4.69886719 -28.34570312 4.38476562 C-27.34474609 4.07216797 -26.34378906 3.75957031 -25.3125 3.4375 C-23.84006836 2.96280273 -23.84006836 2.96280273 -22.33789062 2.47851562 C-14.48834028 -0.001121 -8.25280503 -1.51582133 0 0 Z " fill="#BDBEBF" transform="translate(142,111)"/>
<path d="M0 0 C2.05078125 0.03255208 4.1015625 0.06510417 6.15234375 0.09765625 C6.15234375 1.08765625 6.15234375 2.07765625 6.15234375 3.09765625 C5.49234375 3.75765625 4.83234375 4.41765625 4.15234375 5.09765625 C3.87949208 7.73477611 3.87949208 7.73477611 3.94921875 10.8046875 C3.93761719 11.94873047 3.92601562 13.09277344 3.9140625 14.27148438 C3.90628774 16.685547 3.91394917 19.09971161 3.9375 21.51367188 C3.81456008 29.93505611 3.81456008 29.93505611 2.05541992 33.0234375 C-1.20003712 36.13576717 -4.63290817 36.65805718 -8.91601562 36.5859375 C-9.61533203 36.54855469 -10.31464844 36.51117188 -11.03515625 36.47265625 C-11.74607422 36.45847656 -12.45699219 36.44429687 -13.18945312 36.4296875 C-16.30476166 36.34176722 -18.87753762 36.08769579 -21.84765625 35.09765625 C-26.55103992 28.12717398 -26.33229774 21.81010841 -26.09765625 13.59765625 C-26.07960937 12.39367187 -26.0615625 11.1896875 -26.04296875 9.94921875 C-25.99612179 6.9978602 -25.9305363 4.04818589 -25.84765625 1.09765625 C-23.53765625 1.09765625 -21.22765625 1.09765625 -18.84765625 1.09765625 C-18.83831055 1.88938232 -18.82896484 2.6811084 -18.81933594 3.49682617 C-18.76556281 7.09356333 -18.68192662 10.68900977 -18.59765625 14.28515625 C-18.58347656 15.53103516 -18.56929687 16.77691406 -18.5546875 18.06054688 C-18.52246094 19.26259766 -18.49023438 20.46464844 -18.45703125 21.703125 C-18.43608398 22.80809326 -18.41513672 23.91306152 -18.39355469 25.05151367 C-17.7323194 28.74124208 -16.45425262 30.44804074 -13.84765625 33.09765625 C-11.64047898 33.76941899 -11.64047898 33.76941899 -9.34765625 33.53515625 C-8.59484375 33.51324219 -7.84203125 33.49132812 -7.06640625 33.46875 C-4.4478577 33.14237373 -4.4478577 33.14237373 -0.84765625 31.09765625 C-0.84765625 21.52765625 -0.84765625 11.95765625 -0.84765625 2.09765625 C-1.50765625 1.76765625 -2.16765625 1.43765625 -2.84765625 1.09765625 C-1.84765625 0.09765625 -1.84765625 0.09765625 0 0 Z " fill="#A06228" transform="translate(204.84765625,113.90234375)"/>
<path d="M0 0 C1.59242324 0.00079071 3.18498419 0.02899237 4.77661133 0.0793457 C5.61581619 0.08642044 6.45502106 0.09349518 7.31965637 0.1007843 C10.00022516 0.12877528 12.67870525 0.19151895 15.35864258 0.25512695 C17.1756697 0.2802039 18.99272957 0.30301813 20.80981445 0.32348633 C25.26439535 0.37861696 29.71741487 0.46491912 34.17114258 0.56762695 C31.44067383 6.4440918 31.44067383 6.4440918 29.01489258 7.5559082 C28.24145508 7.66290039 27.46801758 7.76989258 26.67114258 7.88012695 C25.89770508 8.00000977 25.12426758 8.11989258 24.32739258 8.2434082 C23.61583008 8.35040039 22.90426758 8.45739258 22.17114258 8.56762695 C21.18114258 8.89762695 20.19114258 9.22762695 19.17114258 9.56762695 C19.17114258 10.55762695 19.17114258 11.54762695 19.17114258 12.56762695 C9.5982026 12.78629817 0.59447213 12.56651504 -8.82885742 10.56762695 C-8.20384347 8.88489709 -7.5270836 7.22132053 -6.82885742 5.56762695 C-6.48685303 4.69468994 -6.14484863 3.82175293 -5.79248047 2.92236328 C-3.82885742 0.56762695 -3.82885742 0.56762695 0 0 Z " fill="#0F0C0A" transform="translate(90.828857421875,189.432373046875)"/>
<path d="M0 0 C1 1 1 1 1.0625 4.0625 C1.041875 5.031875 1.02125 6.00125 1 7 C0.34 7 -0.32 7 -1 7 C-1.37125 6.34 -1.7425 5.68 -2.125 5 C-3.77406895 2.81895526 -3.77406895 2.81895526 -5.97265625 2.734375 C-7.98367086 2.74856205 -9.99324516 2.86840952 -12 3 C-12.29564419 8.83228527 -12.29564419 8.83228527 -10 14 C-7.96323587 14.94452303 -7.96323587 14.94452303 -5.625 15.4375 C-2.5697149 16.37228932 -0.97514015 17.02000915 1.5625 19.0625 C3.66802314 23.36509077 3.9263916 27.30469898 3 32 C0.75 34.625 0.75 34.625 -2 36 C-3.32 36 -4.64 36 -6 36 C-6 36.66 -6 37.32 -6 38 C-7.60517097 37.91266424 -9.20921662 37.80447776 -10.8125 37.6875 C-12.15248047 37.60048828 -12.15248047 37.60048828 -13.51953125 37.51171875 C-16.37234551 36.92318541 -17.35262868 36.38435323 -19 34 C-19.39078556 31.27492202 -19.13616953 28.76878044 -19 26 C-18.01 26 -17.02 26 -16 26 C-15.67 27.65 -15.34 29.3 -15 31 C-14.01 31 -13.02 31 -12 31 C-11.67 31.66 -11.34 32.32 -11 33 C-9.10466658 33.46523063 -9.10466658 33.46523063 -6.9375 33.625 C-4.9884375 33.810625 -4.9884375 33.810625 -3 34 C-3.7377375 27.21509474 -3.7377375 27.21509474 -7.25 21.625 C-8.1575 21.08875 -9.065 20.5525 -10 20 C-17.35294118 15.29411765 -17.35294118 15.29411765 -19 12 C-19.23535862 9.28030038 -19.13700646 6.74012924 -19 4 C-17.68 3.34 -16.36 2.68 -15 2 C-15 1.34 -15 0.68 -15 0 C-10.03044967 -1.4908651 -5.04490849 -0.84081808 0 0 Z " fill="#D48132" transform="translate(239,114)"/>
<path d="M0 0 C0.66 0 1.32 0 2 0 C1.51970541 7.32449246 -0.31670753 13.1619321 -3 20 C-10.26 20.33 -17.52 20.66 -25 21 C-17.41 21.33 -9.82 21.66 -2 22 C-1.505 20.515 -1.505 20.515 -1 19 C-0.505 20.485 -0.505 20.485 0 22 C-2.42390039 24.42390039 -8.21922115 23.17322421 -11.60546875 23.18554688 C-12.65613525 23.18542603 -12.65613525 23.18542603 -13.72802734 23.18530273 C-15.85925415 23.18748389 -17.989959 23.20562102 -20.12109375 23.22460938 C-21.47395656 23.22754433 -22.82682183 23.22952844 -24.1796875 23.23046875 C-25.41444824 23.23457764 -26.64920898 23.23868652 -27.92138672 23.24291992 C-31 23 -31 23 -34 21 C-35.1875 18.875 -35.1875 18.875 -36 17 C-32.00648208 13.19556911 -29.46256932 12.5242993 -24 12.4375 C-13.20873349 12.10601206 -13.20873349 12.10601206 -3 9 C-1.06293124 6.10724215 -0.36774437 3.43949148 0 0 Z " fill="#100F0F" transform="translate(113,134)"/>
<path d="M0 0 C1.51223648 0.00666183 1.51223648 0.00666183 3.05502319 0.01345825 C4.19605499 0.01360931 5.33708679 0.01376038 6.51269531 0.01391602 C8.36741959 0.02939987 8.36741959 0.02939987 10.25961304 0.04519653 C12.15313004 0.04944138 12.15313004 0.04944138 14.0848999 0.05377197 C17.44201998 0.06308772 20.79886965 0.08106068 24.15591431 0.10317993 C27.58108176 0.12363353 31.00627713 0.13277264 34.43148804 0.14285278 C41.15291724 0.16494445 47.87421827 0.19844527 54.59555054 0.24050903 C55.58555054 2.71550903 55.58555054 2.71550903 56.59555054 5.24050903 C56.09926147 5.79738403 55.60297241 6.35425903 55.09164429 6.92800903 C54.41230835 7.69113403 53.73297241 8.45425903 53.03305054 9.24050903 C51.93670288 10.46834106 51.93670288 10.46834106 50.81820679 11.72097778 C49.43300109 13.29120216 48.06289628 14.87504311 46.71664429 16.47879028 C46.14043335 17.16328247 45.56422241 17.84777466 44.97055054 18.55300903 C44.2087146 19.47533325 44.2087146 19.47533325 43.43148804 20.41629028 C40.10386667 23.72267152 37.08655224 26.03580949 32.3684082 26.68356323 C30.62966934 26.64359222 30.62966934 26.64359222 28.85580444 26.60281372 C28.21119263 26.59364426 27.56658081 26.58447479 26.9024353 26.57502747 C24.79144232 26.54021361 22.68240049 26.47653586 20.57211304 26.41238403 C19.10098747 26.38245682 17.62982392 26.35434671 16.15863037 26.32797241 C12.3013397 26.25396784 8.44505906 26.15540264 4.58847046 26.05160522 C0.64713391 25.94991232 -3.29466082 25.87160382 -7.23648071 25.79129028 C-14.95977213 25.63050047 -22.682146 25.44374516 -30.40444946 25.24050903 C-30.40444946 24.91050903 -30.40444946 24.58050903 -30.40444946 24.24050903 C-18.92484514 22.48567686 -7.53022991 22.1014109 4.05648804 22.52957153 C5.8650576 22.58377021 7.67365189 22.63714957 9.48226929 22.68972778 C12.24275047 22.77003448 14.99749792 22.86695965 17.75521851 23.01541138 C28.94435675 23.94319256 28.94435675 23.94319256 39.08480835 20.09890747 C44.8871555 14.4786879 48.94347466 7.88633171 53.59555054 1.24050903 C24.88555054 1.73550903 24.88555054 1.73550903 -4.40444946 2.24050903 C-2.40444946 0.24050903 -2.40444946 0.24050903 0 0 Z " fill="#A1A2A3" transform="translate(133.40444946289063,75.75949096679688)"/>
<path d="M0 0 C0.98484375 -0.00128906 1.9696875 -0.00257812 2.984375 -0.00390625 C4.02078125 -0.00003906 5.0571875 0.00382812 6.125 0.0078125 C7.67960937 0.00201172 7.67960937 0.00201172 9.265625 -0.00390625 C10.25046875 -0.00261719 11.2353125 -0.00132813 12.25 0 C13.16007812 0.00112793 14.07015625 0.00225586 15.0078125 0.00341797 C17.125 0.1328125 17.125 0.1328125 18.125 1.1328125 C18.16592937 3.46578683 18.16741723 5.79986475 18.125 8.1328125 C17.135 8.1328125 16.145 8.1328125 15.125 8.1328125 C14.795 6.8128125 14.465 5.4928125 14.125 4.1328125 C8.68 3.6378125 8.68 3.6378125 3.125 3.1328125 C3.125 7.7528125 3.125 12.3728125 3.125 17.1328125 C6.755 16.8028125 10.385 16.4728125 14.125 16.1328125 C14.125 18.1128125 14.125 20.0928125 14.125 22.1328125 C13.609375 21.8234375 13.09375 21.5140625 12.5625 21.1953125 C9.4631875 19.84433013 6.4645495 19.56535625 3.125 19.1328125 C3.26558476 21.59155018 3.41222999 24.04966425 3.5625 26.5078125 C3.60181641 27.20648438 3.64113281 27.90515625 3.68164062 28.625 C3.86780134 32.50641742 3.86780134 32.50641742 5.125 36.1328125 C1.825 36.1328125 -1.475 36.1328125 -4.875 36.1328125 C-4.545 35.4728125 -4.215 34.8128125 -3.875 34.1328125 C-3.71891977 31.72720977 -3.61695542 29.34578478 -3.55859375 26.9375 C-3.53781265 26.23005646 -3.51703156 25.52261292 -3.49562073 24.79373169 C-3.43018922 22.53185825 -3.37127026 20.26986788 -3.3125 18.0078125 C-3.26930867 16.47524828 -3.22569418 14.94269593 -3.18164062 13.41015625 C-3.07451445 9.65116177 -2.9732291 5.89204958 -2.875 2.1328125 C-3.865 1.8028125 -4.855 1.4728125 -5.875 1.1328125 C-4.22105883 -0.52112867 -2.27184587 0.00281567 0 0 Z " fill="#CC7C30" transform="translate(256.875,113.8671875)"/>
<path d="M0 0 C1.09860603 -0.00287018 1.09860603 -0.00287018 2.21940613 -0.00579834 C3.76679834 -0.00715681 5.31420208 -0.00348396 6.86157227 0.00488281 C9.21201687 0.01554133 11.56168917 0.00500036 13.91210938 -0.0078125 C15.42057458 -0.00648994 16.92903932 -0.00392557 18.4375 0 C19.48004692 -0.00607269 19.48004692 -0.00607269 20.5436554 -0.01226807 C25.22110096 0.03192438 29.01879621 0.82416506 33.41796875 2.265625 C32.51933527 9.45469284 27.54415298 20.13944077 22.41796875 25.265625 C19.47962975 25.64286411 16.55241904 25.97344093 13.60546875 26.265625 C11.97369562 26.4296996 10.34217245 26.5962835 8.7109375 26.765625 C7.98414795 26.8378125 7.2573584 26.91 6.50854492 26.984375 C4.42026048 27.26531669 2.46004439 27.75440875 0.41796875 28.265625 C-8.53158239 29.16058011 -16.22959655 26.13517312 -24.58203125 23.265625 C-24.58203125 22.275625 -24.58203125 21.285625 -24.58203125 20.265625 C-23.34839844 20.69875 -23.34839844 20.69875 -22.08984375 21.140625 C-11.03224496 24.81797887 -3.08780268 24.62308299 8.27734375 22.7109375 C12.38394338 22.12865845 16.27801363 22.12528754 20.41796875 22.265625 C20.588125 21.68554688 20.75828125 21.10546875 20.93359375 20.5078125 C22.12830921 16.65676161 23.25797287 13.19883983 25.60546875 9.890625 C27.70206411 7.38583489 27.70206411 7.38583489 27.41796875 4.265625 C22.49815563 3.48324385 17.72446115 3.0895023 12.734375 2.94921875 C12.0340062 2.92843765 11.33363739 2.90765656 10.61204529 2.88624573 C8.40160769 2.82150035 6.1910639 2.76221892 3.98046875 2.703125 C2.47069268 2.65986819 0.96092687 2.61625177 -0.54882812 2.57226562 C-4.22645321 2.46589752 -7.90419416 2.36442498 -11.58203125 2.265625 C-7.88013967 -0.11978842 -4.25748129 -0.02458444 0 0 Z " fill="#B3B4B6" transform="translate(54.58203125,117.734375)"/>
<path d="M0 0 C0.99 0.495 0.99 0.495 2 1 C1.67 1.66 1.34 2.32 1 3 C2.32 3.33 3.64 3.66 5 4 C3.71475739 4.86380259 2.42157581 5.71580369 1.125 6.5625 C0.40570313 7.03816406 -0.31359375 7.51382813 -1.0546875 8.00390625 C-2.01761719 8.49697266 -2.01761719 8.49697266 -3 9 C-3.99 8.505 -3.99 8.505 -5 8 C-8.45136126 8.46391467 -10.62234831 9.97258571 -13.38671875 12.01953125 C-24.44239518 19.96028135 -33.48462912 25.17176847 -47 27 C-48.89878906 27.30744141 -48.89878906 27.30744141 -50.8359375 27.62109375 C-53.04046001 27.97391468 -55.24856064 28.30581771 -57.4609375 28.60546875 C-60.11451798 28.94549757 -60.11451798 28.94549757 -63 30 C-65.33299825 30.03954234 -67.66708189 30.04401732 -70 30 C-67.81372367 26.72058551 -67.52881341 26.56700536 -63.95703125 25.68359375 C-63.138396 25.47855225 -62.31976074 25.27351074 -61.47631836 25.06225586 C-60.5972583 24.85608643 -59.71819824 24.64991699 -58.8125 24.4375 C-57.45427124 24.10020874 -57.45427124 24.10020874 -56.06860352 23.75610352 C-50.80210402 22.49402303 -45.83296262 21.76807539 -40.4375 21.4375 C-30.96818112 20.377348 -23.94356095 14.77940203 -16.27734375 9.52880859 C-12.91229372 7.26980953 -9.45052437 5.2062024 -5.9375 3.1875 C-4.83277344 2.54167969 -3.72804688 1.89585938 -2.58984375 1.23046875 C-1.73519531 0.82441406 -0.88054687 0.41835937 0 0 Z " fill="#BFC0C1" transform="translate(117,78)"/>
<path d="M0 0 C1.66519519 0.34060811 3.33157466 0.67558396 5 1 C5 1.33 5 1.66 5 2 C4.33355469 2.17015625 3.66710938 2.3403125 2.98046875 2.515625 C-9.02681725 5.52373194 -9.02681725 5.52373194 -20 11 C-20.58687784 14.34613512 -20.58687784 14.34613512 -20.6875 18.125 C-20.75324219 19.40632813 -20.81898437 20.68765625 -20.88671875 22.0078125 C-20.92410156 22.99523437 -20.96148437 23.98265625 -21 25 C-21.99 25 -22.98 25 -24 25 C-24.33 23.68 -24.66 22.36 -25 21 C-26.28446919 23.56893838 -26.32977144 25.76576337 -26.5625 28.625 C-26.68818359 30.12933594 -26.68818359 30.12933594 -26.81640625 31.6640625 C-26.87699219 32.43492187 -26.93757813 33.20578125 -27 34 C-27.33 34 -27.66 34 -28 34 C-28.33 31.03 -28.66 28.06 -29 25 C-29.06058594 26.41152344 -29.12117188 27.82304687 -29.18359375 29.27734375 C-29.26807401 31.16406945 -29.35271817 33.05078782 -29.4375 34.9375 C-29.47681641 35.86369141 -29.51613281 36.78988281 -29.55664062 37.74414062 C-29.82079121 43.53513419 -30.29764309 49.24539503 -31 55 C-31.33 55 -31.66 55 -32 55 C-32.28444611 20.56889222 -32.28444611 20.56889222 -28 12 C-24.38346259 8.68267252 -20.38794766 6.49396618 -16 4.375 C-15.39671875 4.0759375 -14.7934375 3.776875 -14.171875 3.46875 C-4.18410348 -1.43828557 -4.18410348 -1.43828557 0 0 Z " fill="#B2B3B4" transform="translate(48,107)"/>
<path d="M0 0 C3.85370757 2.74041427 7.36046665 5.91850039 9.8125 10 C9.50390625 12.25390625 9.50390625 12.25390625 8.8125 14 C8.4103125 13.20335937 8.4103125 13.20335937 8 12.390625 C4.93169036 6.85959315 1.95227038 3.81582858 -4.1875 2 C-8.41837028 1.23796708 -11.48630298 1.64252701 -15.375 3.625 C-24.0595374 10.95860936 -26.37062931 19.7806293 -27.62109375 30.83203125 C-27.78228914 33.08132699 -27.91578712 35.33291455 -28.01171875 37.5859375 C-28.1875 40 -28.1875 40 -29.1875 41 C-31.02868029 41.09381302 -32.87347641 41.11743954 -34.71704102 41.11352539 C-35.89818985 41.11344986 -37.07933868 41.11337433 -38.29627991 41.11329651 C-39.5816716 41.10813522 -40.86706329 41.10297394 -42.19140625 41.09765625 C-43.49955795 41.0962413 -44.80770966 41.09482635 -46.15550232 41.09336853 C-49.63912859 41.0895441 -53.12271339 41.07971446 -56.60632324 41.06866455 C-60.15876708 41.05844882 -63.71121759 41.05387056 -67.26367188 41.04882812 C-74.23829832 41.03809212 -81.21289717 41.0210166 -88.1875 41 C-88.1875 40.67 -88.1875 40.34 -88.1875 40 C-69.0475 40 -49.9075 40 -30.1875 40 C-30.5175 39.34 -30.8475 38.68 -31.1875 38 C-31.31139818 35.75254466 -31.3631285 33.50083658 -31.375 31.25 C-31.38917969 30.03828125 -31.40335938 28.8265625 -31.41796875 27.578125 C-31.1876397 24.0021689 -30.46444968 21.32935607 -29.1875 18 C-28.95289063 17.28714844 -28.71828125 16.57429688 -28.4765625 15.83984375 C-25.95839066 8.62602207 -22.13655642 4.29167445 -15.69140625 0.171875 C-10.4103204 -2.29977204 -5.43239034 -1.70427932 0 0 Z " fill="#B1B2B4" transform="translate(155.1875,124)"/>
<path d="M0 0 C1.32 0.33 2.64 0.66 4 1 C3.01 1 2.02 1 1 1 C1 2.32 1 3.64 1 5 C3.475 5.495 3.475 5.495 6 6 C7.04233068 9.92114875 6.90104262 12.54195407 5.8125 16.4375 C5.57144531 17.34371094 5.33039063 18.24992187 5.08203125 19.18359375 C2.72776618 25.31148225 2.72776618 25.31148225 0 28 C-4.43121723 28.75989477 -8.77113478 28.56161938 -13.25 28.375 C-14.47203125 28.34792969 -15.6940625 28.32085937 -16.953125 28.29296875 C-19.97052741 28.22224838 -22.9843757 28.12359116 -26 28 C-22.69711664 25.79807776 -21.72537273 25.76040032 -17.89453125 25.8046875 C-16.91162109 25.81113281 -15.92871094 25.81757813 -14.91601562 25.82421875 C-13.89185547 25.84097656 -12.86769531 25.85773438 -11.8125 25.875 C-10.77673828 25.88402344 -9.74097656 25.89304688 -8.67382812 25.90234375 C-6.11565315 25.9259214 -3.55794252 25.9588297 -1 26 C-0.85506104 25.25274658 -0.71012207 24.50549316 -0.56079102 23.7355957 C0.16812023 20.17989239 1.11414692 16.68936914 2.0625 13.1875 C2.24876953 12.49462891 2.43503906 11.80175781 2.62695312 11.08789062 C3.08321198 9.39154359 3.54140954 7.6957182 4 6 C3.34 6 2.68 6 2 6 C1.96003906 6.61488281 1.92007813 7.22976562 1.87890625 7.86328125 C1.54029807 10.48435938 1.09036735 12.58745491 0 15 C-2.76031518 16.96431732 -5.70043602 17.42454862 -9 18 C-10.09183594 18.20109375 -11.18367188 18.4021875 -12.30859375 18.609375 C-17.24117122 19.43800322 -21.99017599 20.12060687 -27 20 C-24.78584534 17.78584534 -23.7215569 17.48147225 -20.75390625 16.7109375 C-19.91666016 16.49179688 -19.07941406 16.27265625 -18.21679688 16.046875 C-17.34087891 15.82515625 -16.46496094 15.6034375 -15.5625 15.375 C-14.25442383 15.03082031 -14.25442383 15.03082031 -12.91992188 14.6796875 C-6.41613188 13 -6.41613188 13 -3 13 C-2.87625 11.96875 -2.7525 10.9375 -2.625 9.875 C-2.06110186 6.37883154 -1.21317941 3.31602373 0 0 Z " fill="#CACCCD" transform="translate(111,128)"/>
<path d="M0 0 C3.01680493 -0.00966692 6.03291569 -0.04075762 9.04956055 -0.07226562 C29.9030084 -0.18565703 48.90441508 2.20994913 67.48510742 12.24023438 C64.48510742 13.24023438 64.48510742 13.24023438 62.27807617 12.34960938 C60.98836914 11.67671875 60.98836914 11.67671875 59.67260742 10.99023438 C53.15303765 7.86916374 46.56899806 6.49582218 39.48510742 5.24023438 C38.66510254 5.06911133 37.84509766 4.89798828 37.00024414 4.72167969 C31.99636111 4.03633052 27.02666872 4.02325694 21.98120117 3.95898438 C20.86632828 3.94057495 19.75145538 3.92216553 18.60279846 3.90319824 C15.0427869 3.84462768 11.48272691 3.79179888 7.92260742 3.74023438 C4.38748675 3.68849265 0.85242125 3.63531287 -2.68260193 3.57727051 C-4.87758186 3.54124216 -7.07262279 3.50868605 -9.26771545 3.48034668 C-16.71326985 3.35840342 -24.09678837 2.88402316 -31.51489258 2.24023438 C-31.51489258 1.91023438 -31.51489258 1.58023438 -31.51489258 1.24023438 C-21.0304124 0.03849468 -10.54016214 0.02033962 0 0 Z " fill="#969799" transform="translate(194.514892578125,66.759765625)"/>
<path d="M0 0 C3.99411168 -0.4890749 7.52558646 -0.86973832 11.0859375 1.23046875 C15.42834421 4.94075296 18.17068793 8.21123755 19 14 C19.69806935 23.80730218 18.79107786 31.91156782 15 41 C14.34 41 13.68 41 13 41 C12.74605469 41.60199219 12.49210937 42.20398438 12.23046875 42.82421875 C10.1415319 46.51798963 6.85505337 48.38157219 3 50 C-0.51246786 49.88669459 -2.87479486 49.56260257 -6 48 C-6 47.34 -6 46.68 -6 46 C-5.33613281 46.04640625 -4.67226562 46.0928125 -3.98828125 46.140625 C1.59526354 46.36940343 1.59526354 46.36940343 6.8125 44.625 C14.03511034 35.95786759 15.00637353 27.84493279 14.20068359 16.91601562 C13.62775242 11.44598662 12.43132634 7.54737983 8.6875 3.5 C5.73554844 1.85239913 3.3500605 1.31163354 0 1 C0 0.67 0 0.34 0 0 Z " fill="#E5E7E9" transform="translate(143,128)"/>
<path d="M0 0 C-1.6396875 1.0209375 -1.6396875 1.0209375 -3.3125 2.0625 C-6.17316159 4.05525628 -7.42742381 5.43662768 -8.5 8.75 C-8.995 9.8225 -9.49 10.895 -10 12 C-13.6875 12.9375 -13.6875 12.9375 -17 13 C-17.33 14.32 -17.66 15.64 -18 17 C-18 16.34 -18 15.68 -18 15 C-21.3 15 -24.6 15 -28 15 C-28.6875 12.1875 -28.6875 12.1875 -29 9 C-27.6875 7.125 -27.6875 7.125 -26 6 C-25.34 6 -24.68 6 -24 6 C-22.67406656 5.42591453 -21.36365585 4.81572534 -20.0625 4.1875 C-6.16075161 -2.11102678 -6.16075161 -2.11102678 0 0 Z " fill="#212121" transform="translate(128,116)"/>
<path d="M0 0 C-0.33 0.99 -0.66 1.98 -1 3 C-5.82499199 1.43513773 -10.56936764 -0.3133084 -15.31640625 -2.09765625 C-26.57305725 -5.8826437 -40.17709475 -5.47983582 -51.015625 -0.70703125 C-55.36737361 1.78212339 -59.10661876 4.79414016 -62.85546875 8.109375 C-65 10 -65 10 -67 11 C-63.56722823 2.86305952 -54.73758358 -2.44134786 -46.9765625 -5.90234375 C-32.06229747 -11.42520299 -13.07913608 -8.71942405 0 0 Z " fill="#C7C9CB" transform="translate(253,80)"/>
<path d="M0 0 C2.31 0 4.62 0 7 0 C7 10.56 7 21.12 7 32 C3 31 3 31 1.26831055 28.82348633 C-0.19153115 25.57361737 -0.34544465 23.37508815 -0.29296875 19.82421875 C-0.28330078 18.66728516 -0.27363281 17.51035156 -0.26367188 16.31835938 C-0.23853516 15.12017578 -0.21339844 13.92199219 -0.1875 12.6875 C-0.17396484 11.46998047 -0.16042969 10.25246094 -0.14648438 8.99804688 C-0.11119261 5.99824655 -0.06188481 2.99935025 0 0 Z " fill="#CD7D31" transform="translate(179,115)"/>
<path d="M0 0 C12.13970792 -0.6503415 23.82108988 2.07123651 34.9375 6.81640625 C38.05708569 8.1105805 38.05708569 8.1105805 41.71484375 8.8203125 C47.08440675 10.0998435 51.7282569 12.71422373 56.5625 15.3125 C57.46935547 15.78623047 58.37621094 16.25996094 59.31054688 16.74804688 C64.51462172 19.50669714 69.28413268 22.47372083 74 26 C74.99 26.66 75.98 27.32 77 28 C73.09608197 28.27016734 71.23604176 27.848899 68.125 25.5 C64.02202844 22.60176002 59.80459824 20.16330035 55.375 17.8125 C54.75383301 17.47992188 54.13266602 17.14734375 53.49267578 16.8046875 C49.40746221 14.65013483 45.26553751 12.77091082 41 11 C41.66 12.32 42.32 13.64 43 15 C39.44926024 13.67084608 36.31697201 12.06063358 33.0625 10.125 C22.62940249 4.39729949 11.80043514 2.39204103 0 2 C0 1.34 0 0.68 0 0 Z " fill="#373737" transform="translate(219,70)"/>
<path d="M0 0 C0.99 0 1.98 0 3 0 C3 0.66 3 1.32 3 2 C2.34 2 1.68 2 1 2 C1 2.66 1 3.32 1 4 C5.55193858 5.84245133 8.23259814 5.91290674 13 5 C14.67654729 5.27942455 16.34608154 5.60828247 18 6 C19.32 6 20.64 6 22 6 C22 7.65 22 9.3 22 11 C21.34 11 20.68 11 20 11 C20 10.01 20 9.02 20 8 C18.88625 8.495 17.7725 8.99 16.625 9.5 C11.73380807 11.36706789 7.1692808 11.28600529 2 11 C2.33 9.68 2.66 8.36 3 7 C1.01508358 7.26676204 1.01508358 7.26676204 -1 8 C-1.33 8.99 -1.66 9.98 -2 11 C-6.3164922 11.76173392 -9.74433453 12.16063604 -14 11 C-14 10.01 -14 9.02 -14 8 C-6.71428571 4.57142857 -6.71428571 4.57142857 -2 5 C-1.34 3.35 -0.68 1.7 0 0 Z " fill="#8A4E15" transform="translate(124,191)"/>
<path d="M0 0 C1.82861794 3.65723588 2.17232648 4.71988877 2.25 8.5 C2.37705819 10.87397447 2.37705819 10.87397447 3 13 C4.99371825 14.34270821 6.9934562 15.67653494 9 17 C9.76584925 20.46024615 9.60544636 23.78910728 8 27 C7.01 27 6.02 27 5 27 C5.495 22.545 5.495 22.545 6 18 C5.01 18 4.02 18 3 18 C2.67 22.62 2.34 27.24 2 32 C7.28 32 12.56 32 18 32 C18 32.33 18 32.66 18 33 C13.545 33.495 13.545 33.495 9 34 C9 34.33 9 34.66 9 35 C5.7 35 2.4 35 -1 35 C-0.67 23.45 -0.34 11.9 0 0 Z " fill="#E4E5E5" transform="translate(18,128)"/>
<path d="M0 0 C0.66 0 1.32 0 2 0 C1.67 1.65 1.34 3.3 1 5 C1.99 5.33 2.98 5.66 4 6 C4 6.99 4 7.98 4 9 C5.423125 8.2265625 5.423125 8.2265625 6.875 7.4375 C7.90625 6.963125 8.9375 6.48875 10 6 C10.66 6.33 11.32 6.66 12 7 C9.8125 9.0625 9.8125 9.0625 7 11 C4.1875 10.75 4.1875 10.75 2 10 C2 9.01 2 8.02 2 7 C1.01 7 0.02 7 -1 7 C-1.33 8.32 -1.66 9.64 -2 11 C-2.66 11 -3.32 11 -4 11 C-4 9.68 -4 8.36 -4 7 C-4.66 7 -5.32 7 -6 7 C-6.33 8.32 -6.66 9.64 -7 11 C-8.79133978 11.05391993 -10.58313899 11.09275571 -12.375 11.125 C-13.37273437 11.14820313 -14.37046875 11.17140625 -15.3984375 11.1953125 C-18 11 -18 11 -20 9 C-23.09926819 9.32198966 -23.09926819 9.32198966 -26 10 C-26.33 8.68 -26.66 7.36 -27 6 C-26.34 6 -25.68 6 -25 6 C-25 6.66 -25 7.32 -25 8 C-24.45988281 7.68289062 -23.91976562 7.36578125 -23.36328125 7.0390625 C-20.55887588 5.80605121 -18.2396356 5.58657294 -15.1875 5.375 C-14.13433594 5.30152344 -13.08117187 5.22804687 -11.99609375 5.15234375 C-8.65090447 4.98224938 -5.34792416 4.92391081 -2 5 C-1.34 3.35 -0.68 1.7 0 0 Z " fill="#6A3D12" transform="translate(207,191)"/>
<path d="M0 0 C0.66 0.33 1.32 0.66 2 1 C2.29034701 4.38092957 2.42819712 7.6272869 2 11 C-0.25 13.625 -0.25 13.625 -3 15 C-4.32 15 -5.64 15 -7 15 C-7 15.66 -7 16.32 -7 17 C-8.60517097 16.91266424 -10.20921662 16.80447776 -11.8125 16.6875 C-12.70582031 16.62949219 -13.59914062 16.57148438 -14.51953125 16.51171875 C-17.37234551 15.92318541 -18.35262868 15.38435323 -20 13 C-20.39078556 10.27492202 -20.13616953 7.76878044 -20 5 C-19.01 5 -18.02 5 -17 5 C-16.67 6.65 -16.34 8.3 -16 10 C-15.01 10 -14.02 10 -13 10 C-12.67 10.66 -12.34 11.32 -12 12 C-10.10466658 12.46523063 -10.10466658 12.46523063 -7.9375 12.625 C-6.638125 12.74875 -5.33875 12.8725 -4 13 C-4.30893932 11.3743193 -4.6222695 9.74947252 -4.9375 8.125 C-5.11152344 7.22007812 -5.28554687 6.31515625 -5.46484375 5.3828125 C-5.89963701 3.00043683 -5.89963701 3.00043683 -7 1 C-5.68 1.33 -4.36 1.66 -3 2 C-2.67 4.97 -2.34 7.94 -2 11 C-1.34 10.67 -0.68 10.34 0 10 C0 6.7 0 3.4 0 0 Z " fill="#9E6027" transform="translate(240,135)"/>
<path d="M0 0 C2.97 0 5.94 0 9 0 C8.35675781 0.33773437 7.71351563 0.67546875 7.05078125 1.0234375 C4.11004342 3.85774863 4.29294854 6.75612941 4.1875 10.625 C4.14947266 11.31851563 4.11144531 12.01203125 4.07226562 12.7265625 C3.99166206 14.48269123 3.98951106 16.24205375 4 18 C4.33 18.33 4.66 18.66 5 19 C5.23653523 21.52596259 5.42173692 24.03107207 5.5625 26.5625 C5.60568359 27.27341797 5.64886719 27.98433594 5.69335938 28.71679688 C5.79971777 30.47761912 5.90038846 32.2387832 6 34 C4.35 34 2.7 34 1 34 C0.67 22.78 0.34 11.56 0 0 Z " fill="#CB7B30" transform="translate(253,115)"/>
<path d="M0 0 C2 2 2 2 2.23046875 5.59765625 C2.22778734 7.086004 2.21281111 8.57436507 2.1875 10.0625 C2.18105469 10.82876709 2.17460937 11.59503418 2.16796875 12.38452148 C2.09655924 17.6470674 1.75820282 22.7873556 1 28 C1.59941406 27.9278125 2.19882813 27.855625 2.81640625 27.78125 C13.85286788 26.65091538 24.91950844 26.90846061 36 27 C36 27.33 36 27.66 36 28 C23.29304542 29.32129837 10.7821215 30.32962491 -2 30 C-1.835 28.71996094 -1.67 27.43992188 -1.5 26.12109375 C-0.93938733 21.08248868 -0.92057638 16.12575585 -1 11.0625 C-1.02544749 9.38678247 -1.04650158 7.71099063 -1.0625 6.03515625 C-1.07410156 5.3069165 -1.08570313 4.57867676 -1.09765625 3.82836914 C-1 2 -1 2 0 0 Z " fill="#525254" transform="translate(165,136)"/>
<path d="M0 0 C0.495 0.99 0.495 0.99 1 2 C-24.74 2.33 -50.48 2.66 -77 3 C-77 3.33 -77 3.66 -77 4 C-80.63 4 -84.26 4 -88 4 C-87.67 3.01 -87.34 2.02 -87 1 C-43.935 0.505 -43.935 0.505 0 0 Z " fill="#3A3A3B" transform="translate(271,98)"/>
<path d="M0 0 C2.16874252 0.50603992 3.99967627 0.99983813 6 2 C6.02465392 6.53897705 6.04283789 11.07791543 6.05493164 15.61694336 C6.0599714 17.16219766 6.0668032 18.70744716 6.07543945 20.25268555 C6.08752076 22.46925029 6.09323173 24.68575218 6.09765625 26.90234375 C6.10281754 27.5971434 6.10797882 28.29194305 6.11329651 29.00779724 C6.11349277 30.6722933 6.06189129 32.33665499 6 34 C5.505 34.495 5.505 34.495 5 35 C7.64 35 10.28 35 13 35 C13 34.67 13 34.34 13 34 C14.65 34 16.3 34 18 34 C18 34.99 18 35.98 18 37 C12.39 37 6.78 37 1 37 C1 36.01 1 35.02 1 34 C1.99 34 2.98 34 4 34 C4 23.77 4 13.54 4 3 C2.68 2.67 1.36 2.34 0 2 C0 1.34 0 0.68 0 0 Z " fill="#482E16" transform="translate(248,114)"/>
<path d="M0 0 C0.66 0.33 1.32 0.66 2 1 C1.67 1.66 1.34 2.32 1 3 C2.32 3.33 3.64 3.66 5 4 C3.71475739 4.86380259 2.42157581 5.71580369 1.125 6.5625 C0.40570313 7.03816406 -0.31359375 7.51382813 -1.0546875 8.00390625 C-2.01761719 8.49697266 -2.01761719 8.49697266 -3 9 C-3.66 8.67 -4.32 8.34 -5 8 C-9.0486031 8.42856835 -11.9641873 10.81243261 -15.25 13.0625 C-16.32765625 13.79597656 -17.4053125 14.52945313 -18.515625 15.28515625 C-19.33546875 15.85105469 -20.1553125 16.41695312 -21 17 C-22.32 16.34 -23.64 15.68 -25 15 C-21.58509055 12.87216616 -18.16777339 10.74823013 -14.75 8.625 C-13.78191406 8.02171875 -12.81382813 7.4184375 -11.81640625 6.796875 C-10.88183594 6.21679688 -9.94726562 5.63671875 -8.984375 5.0390625 C-7.69611816 4.23782959 -7.69611816 4.23782959 -6.38183594 3.42041016 C-2.09314205 0.86284343 -2.09314205 0.86284343 0 0 Z " fill="#C0C1C3" transform="translate(117,78)"/>
<path d="M0 0 C0.91949936 0.00141495 1.83899872 0.0028299 2.78636169 0.00428772 C5.68964046 0.00983313 8.59283876 0.02237508 11.49609375 0.03515625 C13.4785145 0.04017832 15.46093648 0.04473998 17.44335938 0.04882812 C22.27346795 0.05978461 27.10351726 0.07701083 31.93359375 0.09765625 C31.12109375 2.03515625 31.12109375 2.03515625 29.93359375 4.09765625 C28.94359375 4.42765625 27.95359375 4.75765625 26.93359375 5.09765625 C26.43859375 4.10765625 26.43859375 4.10765625 25.93359375 3.09765625 C11.08359375 2.76765625 -3.76640625 2.43765625 -19.06640625 2.09765625 C-19.06640625 1.76765625 -19.06640625 1.43765625 -19.06640625 1.09765625 C-12.66595367 0.28099806 -6.44796169 -0.03815406 0 0 Z " fill="#E8EAEB" transform="translate(162.06640625,73.90234375)"/>
<path d="M0 0 C17.49 0 34.98 0 53 0 C53.495 0.99 53.495 0.99 54 2 C34.2 1.505 34.2 1.505 14 1 C13.34 2.65 12.68 4.3 12 6 C11.02763513 7.6829392 10.03435556 9.35443434 9 11 C11.97 11 14.94 11 18 11 C14.38863788 12.80568106 13.455469 13.24851563 9.75 13.125 C7.89375 13.063125 7.89375 13.063125 6 13 C6.53115106 8.48521602 8.36620292 5.65333143 11 2 C7.37 1.67 3.74 1.34 0 1 C0 0.67 0 0.34 0 0 Z " fill="#171513" transform="translate(73,189)"/>
<path d="M0 0 C1.09860603 -0.00287018 1.09860603 -0.00287018 2.21940613 -0.00579834 C3.76679834 -0.00715681 5.31420208 -0.00348396 6.86157227 0.00488281 C9.21201687 0.01554133 11.56168917 0.00500036 13.91210938 -0.0078125 C15.42057458 -0.00648994 16.92903932 -0.00392557 18.4375 0 C19.48004692 -0.00607269 19.48004692 -0.00607269 20.5436554 -0.01226807 C25.22110096 0.03192438 29.01879621 0.82416506 33.41796875 2.265625 C32.75796875 3.585625 32.09796875 4.905625 31.41796875 6.265625 C30.92296875 5.275625 30.92296875 5.275625 30.41796875 4.265625 C21.94193616 2.30053849 12.4823856 2.93951264 3.79296875 2.703125 C2.29686563 2.65982785 0.80077174 2.61621044 -0.6953125 2.57226562 C-4.32411986 2.46636318 -7.9530326 2.3647832 -11.58203125 2.265625 C-7.88013967 -0.11978842 -4.25748129 -0.02458444 0 0 Z " fill="#C8CACB" transform="translate(54.58203125,117.734375)"/>
<path d="M0 0 C0.66 0 1.32 0 2 0 C2 1.98 2 3.96 2 6 C3.98 6 5.96 6 8 6 C8 6.99 8 7.98 8 9 C7.34 9 6.68 9 6 9 C6 9.66 6 10.32 6 11 C0.72 11 -4.56 11 -10 11 C-9 7 -9 7 -8 6 C-5.66702567 5.95907063 -3.33294775 5.95758277 -1 6 C-0.67 4.02 -0.34 2.04 0 0 Z " fill="#402710" transform="translate(164,191)"/>
<path d="M0 0 C4.62 0 9.24 0 14 0 C14 0.33 14 0.66 14 1 C32.15 1.33 50.3 1.66 69 2 C69 2.33 69 2.66 69 3 C46.56 3 24.12 3 1 3 C0.67 2.01 0.34 1.02 0 0 Z " fill="#2B2B2C" transform="translate(96,99)"/>
<path d="M0 0 C3.64581687 -0.02887512 7.29160463 -0.04675585 10.9375 -0.0625 C12.49887695 -0.07506836 12.49887695 -0.07506836 14.09179688 -0.08789062 C15.08115234 -0.09111328 16.07050781 -0.09433594 17.08984375 -0.09765625 C18.46450806 -0.10551147 18.46450806 -0.10551147 19.86694336 -0.11352539 C22 0 22 0 23 1 C23.04092937 3.33297433 23.04241723 5.66705225 23 8 C22.01 8 21.02 8 20 8 C19.67 6.68 19.34 5.36 19 4 C13.555 3.505 13.555 3.505 8 3 C8 7.62 8 12.24 8 17 C7.67 17 7.34 17 7 17 C7 12.05 7 7.1 7 2 C4.36 2 1.72 2 -1 2 C-0.67 1.34 -0.34 0.68 0 0 Z " fill="#915924" transform="translate(252,114)"/>
<path d="M0 0 C10.41149863 1.08389502 18.16683422 9.63819389 25 17 C23.02 17.99 23.02 17.99 21 19 C20.21625 17.989375 19.4325 16.97875 18.625 15.9375 C14.33373338 10.91058768 8.7963099 6.7129691 2.7578125 3.98828125 C1 3 1 3 0 0 Z " fill="#D6D7D9" transform="translate(251,81)"/>
<path d="M0 0 C0 3.41099168 -0.49145406 6.63088314 -1 10 C-0.34 10 0.32 10 1 10 C0.67 14.29 0.34 18.58 0 23 C-0.33 23 -0.66 23 -1 23 C-1.33 20.03 -1.66 17.06 -2 14 C-2.06058594 15.41152344 -2.12117188 16.82304687 -2.18359375 18.27734375 C-2.26807401 20.16406945 -2.35271817 22.05078782 -2.4375 23.9375 C-2.47681641 24.86369141 -2.51613281 25.78988281 -2.55664062 26.74414062 C-2.82079121 32.53513419 -3.29764309 38.24539503 -4 44 C-4.33 44 -4.66 44 -5 44 C-5.27720424 10.4454927 -5.27720424 10.4454927 -1 1 C-0.67 0.67 -0.34 0.34 0 0 Z " fill="#808181" transform="translate(21,118)"/>
<path d="M0 0 C4.95 0 9.9 0 15 0 C15.33 0.99 15.66 1.98 16 3 C15.01 3 14.02 3 13 3 C13.33 11.91 13.66 20.82 14 30 C12 28 12 28 11.77294922 25.29443359 C11.78865967 23.61341553 11.78865967 23.61341553 11.8046875 21.8984375 C11.81113281 20.68671875 11.81757813 19.475 11.82421875 18.2265625 C11.84097656 16.95554688 11.85773438 15.68453125 11.875 14.375 C11.88402344 13.09625 11.89304688 11.8175 11.90234375 10.5 C11.92597697 7.33314833 11.95892371 4.16666576 12 1 C9.69 1 7.38 1 5 1 C5 9.58 5 18.16 5 27 C4.67 27 4.34 27 4 27 C4 19.08 4 11.16 4 3 C2.68 2.67 1.36 2.34 0 2 C0 1.34 0 0.68 0 0 Z " fill="#452C15" transform="translate(174,114)"/>
<path d="M0 0 C0.66 0.33 1.32 0.66 2 1 C-0.00600802 7.01802407 -7.84422999 10.25484803 -13.2109375 13.22265625 C-16.59426185 14.81089803 -18.47849501 15.08529141 -22 14 C-18.70944579 11.85245698 -15.41737059 9.70725711 -12.125 7.5625 C-11.18785156 6.95083984 -10.25070313 6.33917969 -9.28515625 5.70898438 C-8.38925781 5.12568359 -7.49335937 4.54238281 -6.5703125 3.94140625 C-5.74289551 3.40201416 -4.91547852 2.86262207 -4.06298828 2.30688477 C-2 1 -2 1 0 0 Z " fill="#343434" transform="translate(112,84)"/>
<path d="M0 0 C1.32 0 2.64 0 4 0 C4 6.8299973 -1.68188493 14.12530446 -5 20 C-5.33 19.01 -5.66 18.02 -6 17 C-6.66 16.67 -7.32 16.34 -8 16 C-5.33333333 10.66666667 -2.66666667 5.33333333 0 0 Z " fill="#CCCECF" transform="translate(83,122)"/>
<path d="M0 0 C0.78375 0.05671875 1.5675 0.1134375 2.375 0.171875 C4.29248262 0.31217861 6.20888599 0.46710196 8.125 0.625 C8.125 0.955 8.125 1.285 8.125 1.625 C7.19300781 1.63917969 6.26101562 1.65335937 5.30078125 1.66796875 C-8.35079314 2.17869499 -18.29475736 5.50572246 -28.73046875 14.734375 C-30.875 16.625 -30.875 16.625 -32.875 17.625 C-29.36910836 9.31473833 -20.21226686 3.88881864 -12.22265625 0.5 C-7.97694389 -0.60973112 -4.33659809 -0.36750831 0 0 Z " fill="#9B9C9D" transform="translate(218.875,73.375)"/>
<path d="M0 0 C-0.33 0.639375 -0.66 1.27875 -1 1.9375 C-2.07271225 3.76794567 -2.07271225 3.76794567 -2 5 C-2.90492188 5.12955078 -2.90492188 5.12955078 -3.828125 5.26171875 C-9.4529445 6.25059831 -11.58505007 7.2434626 -15 12 C-17.75 12.8125 -17.75 12.8125 -20 13 C-18.63924722 7.3868948 -14.37378806 4.38968575 -10 1 C-6.78548731 -0.60725635 -3.56387464 -0.05748185 0 0 Z " fill="#302F30" transform="translate(151,125)"/>
<path d="M0 0 C3.85370757 2.74041427 7.36046665 5.91850039 9.8125 10 C9.50390625 12.25390625 9.50390625 12.25390625 8.8125 14 C8.544375 13.46890625 8.27625 12.9378125 8 12.390625 C4.93067146 6.85775644 1.95243838 3.819241 -4.1875 2 C-10.28633767 0.88265569 -14.21730819 2.68653879 -19.1875 6 C-19.1875 5.01 -19.1875 4.02 -19.1875 3 C-13.52923147 -2.21156312 -7.16223247 -2.24697489 0 0 Z " fill="#9E9FA1" transform="translate(155.1875,124)"/>
<path d="M0 0 C0.9991932 3.10860106 0.83036989 4.88611292 0 8 C0.33 8.66 0.66 9.32 1 10 C-7.67789216 12.25824035 -16.04211664 13.57483041 -25 14 C-22.78584534 11.78584534 -21.7215569 11.48147225 -18.75390625 10.7109375 C-17.91666016 10.49179688 -17.07941406 10.27265625 -16.21679688 10.046875 C-15.34087891 9.82515625 -14.46496094 9.6034375 -13.5625 9.375 C-12.25442383 9.03082031 -12.25442383 9.03082031 -10.91992188 8.6796875 C-4.41613188 7 -4.41613188 7 -1 7 C-0.67 4.69 -0.34 2.38 0 0 Z " fill="#A8A9AA" transform="translate(109,134)"/>
<path d="M0 0 C0.33 0.66 0.66 1.32 1 2 C-9.89 2.495 -9.89 2.495 -21 3 C-13.41 3.33 -5.82 3.66 2 4 C2.33 3.01 2.66 2.02 3 1 C3.33 1.99 3.66 2.98 4 4 C3 5 3 5 0.13256836 5.11352539 C-1.11903076 5.10828857 -2.37062988 5.10305176 -3.66015625 5.09765625 C-4.65685585 5.09553383 -4.65685585 5.09553383 -5.6736908 5.09336853 C-7.80333899 5.08775518 -9.93288339 5.07520054 -12.0625 5.0625 C-13.50325369 5.05748671 -14.94400903 5.05292351 -16.38476562 5.04882812 C-19.92321102 5.03778145 -23.46159539 5.02050792 -27 5 C-27 4.01 -27 3.02 -27 2 C-24.37276604 0.68638302 -22.27389439 0.78746091 -19.3359375 0.68359375 C-18.21445313 0.64169922 -17.09296875 0.59980469 -15.9375 0.55664062 C-14.761875 0.51732422 -13.58625 0.47800781 -12.375 0.4375 C-11.19164063 0.39431641 -10.00828125 0.35113281 -8.7890625 0.30664062 C-5.85949672 0.20032574 -2.92984412 0.09829358 0 0 Z " fill="#3D3D3D" transform="translate(109,152)"/>
<path d="M0 0 C0.33 0 0.66 0 1 0 C1.00410889 0.75619629 1.00821777 1.51239258 1.01245117 2.29150391 C1.04546205 5.73678284 1.11611697 9.18031123 1.1875 12.625 C1.19330078 13.81480469 1.19910156 15.00460938 1.20507812 16.23046875 C1.22753134 23.45890235 1.22753134 23.45890235 4.28125 29.78125 C8.13718285 32.92804578 10.14005404 32.83525607 15 33 C15 33.33 15 33.66 15 34 C12.72923158 34.02699725 10.45837179 34.04639453 8.1875 34.0625 C6.29064453 34.07990234 6.29064453 34.07990234 4.35546875 34.09765625 C1 34 1 34 -2 33 C-2 32.34 -2 31.68 -2 31 C-1.01 31 -0.02 31 1 31 C0.67 30.34 0.34 29.68 0 29 C-0.08559118 26.82175039 -0.10713412 24.64084745 -0.09765625 22.4609375 C-0.09443359 21.15898437 -0.09121094 19.85703125 -0.08789062 18.515625 C-0.07953466 17.13541601 -0.07106971 15.75520768 -0.0625 14.375 C-0.05748501 12.98698074 -0.0529221 11.59895978 -0.04882812 10.2109375 C-0.03700976 6.80724868 -0.02053434 3.40364561 0 0 Z " fill="#975D26" transform="translate(185,116)"/>
<path d="M0 0 C10.96362229 4.87124622 21.09035811 10.23449378 31 17 C31.99 17.66 32.98 18.32 34 19 C30.09608197 19.27016734 28.23604176 18.848899 25.125 16.5 C21.02202844 13.60176002 16.80459824 11.16330035 12.375 8.8125 C11.75383301 8.47992188 11.13266602 8.14734375 10.49267578 7.8046875 C6.40746221 5.65013483 2.26553751 3.77091082 -2 2 C-1.34 1.34 -0.68 0.68 0 0 Z " fill="#3D3E3E" transform="translate(262,79)"/>
<path d="M0 0 C1 1 1 1 1.0625 4.0625 C1.041875 5.031875 1.02125 6.00125 1 7 C0.34 7 -0.32 7 -1 7 C-1.37125 6.34 -1.7425 5.68 -2.125 5 C-3.98898949 2.57065099 -3.98898949 2.57065099 -7.875 2.625 C-11.2498916 2.78689517 -13.95182239 3.47591119 -17 5 C-17.33 7.31 -17.66 9.62 -18 12 C-18.33 12 -18.66 12 -19 12 C-19 9.36 -19 6.72 -19 4 C-17.68 3.34 -16.36 2.68 -15 2 C-15 1.34 -15 0.68 -15 0 C-10.03044967 -1.4908651 -5.04490849 -0.84081808 0 0 Z " fill="#76491F" transform="translate(239,114)"/>
<path d="M0 0 C3.99411168 -0.4890749 7.52558646 -0.86973832 11.0859375 1.23046875 C13.9055216 3.63960706 15.93251937 5.89877906 18 9 C17.625 11.1875 17.625 11.1875 17 13 C17 12.01 17 11.02 17 10 C16.34 10 15.68 10 15 10 C15.16371094 10.50015625 15.32742187 11.0003125 15.49609375 11.515625 C16.1878911 14.9263468 16.10504665 18.28735757 16.0625 21.75 C16.05798828 22.44738281 16.05347656 23.14476562 16.04882812 23.86328125 C16.0371002 25.57555803 16.01916653 27.28779033 16 29 C15.67 29 15.34 29 15 29 C14.96261719 28.09378906 14.92523438 27.18757813 14.88671875 26.25390625 C14.47392319 13.9256836 14.47392319 13.9256836 8.6875 3.5 C5.73554844 1.85239913 3.3500605 1.31163354 0 1 C0 0.67 0 0.34 0 0 Z " fill="#79797B" transform="translate(143,128)"/>
<path d="M0 0 C1.23556641 0.01740234 1.23556641 0.01740234 2.49609375 0.03515625 C3.32238281 0.04417969 4.14867187 0.05320312 5 0.0625 C5.63808594 0.07410156 6.27617188 0.08570312 6.93359375 0.09765625 C6.93359375 0.42765625 6.93359375 0.75765625 6.93359375 1.09765625 C7.74513916 1.1227124 8.55668457 1.14776855 9.39282227 1.17358398 C13.09405091 1.29011442 16.79506056 1.41258125 20.49609375 1.53515625 C22.41131836 1.59413086 22.41131836 1.59413086 24.36523438 1.65429688 C25.60595703 1.69619141 26.84667969 1.73808594 28.125 1.78125 C29.82958374 1.83623657 29.82958374 1.83623657 31.56860352 1.89233398 C35.0654092 2.10569926 38.4735135 2.55719902 41.93359375 3.09765625 C41.93359375 3.42765625 41.93359375 3.75765625 41.93359375 4.09765625 C17.67859375 3.60265625 17.67859375 3.60265625 -7.06640625 3.09765625 C-5.74640625 2.43765625 -4.42640625 1.77765625 -3.06640625 1.09765625 C-2.06640625 0.09765625 -2.06640625 0.09765625 0 0 Z " fill="#4B4B4C" transform="translate(40.06640625,117.90234375)"/>
<path d="M0 0 C4.8606094 -0.49598055 8.73116254 -0.65196036 12.875 2.1875 C15.63542794 4.46003835 17.62345987 6.64468344 19 10 C18.73972043 13.03659495 18.1899142 13.8100858 16 16 C15.7525 15.113125 15.505 14.22625 15.25 13.3125 C13.4452999 8.53004474 11.4824862 5.83389849 7 3.3125 C6.01 2.879375 5.02 2.44625 4 2 C2.66381571 1.33906599 1.32987625 0.67353647 0 0 Z " fill="#222122" transform="translate(145,126)"/>
<path d="M0 0 C2 3.75 2 3.75 2 6 C1.34 6 0.68 6 0 6 C-0.38091797 6.90298828 -0.38091797 6.90298828 -0.76953125 7.82421875 C-2.8584681 11.51798963 -6.14494663 13.38157219 -10 15 C-13.51246786 14.88669459 -15.87479486 14.56260257 -19 13 C-19 12.34 -19 11.68 -19 11 C-18.00419922 11.06960937 -18.00419922 11.06960937 -16.98828125 11.140625 C-11.33155609 11.39262497 -11.33155609 11.39262497 -6.125 9.4375 C-3.52969282 6.46053 -1.8196197 3.50445276 0 0 Z " fill="#929598" transform="translate(156,163)"/>
<path d="M0 0 C0 0.33 0 0.66 0 1 C-14.51158175 2.71651401 -28.42824236 3.10256653 -43 2 C-43 1.67 -43 1.34 -43 1 C-28.69292646 -0.36257843 -14.35638391 -0.09768292 0 0 Z " fill="#C6C8C9" transform="translate(176,69)"/>
<path d="M0 0 C0.66 0.33 1.32 0.66 2 1 C2 9.25 2 17.5 2 26 C2.66 26 3.32 26 4 26 C2.59874137 29.38637503 1.15368575 31.11654879 -2 33 C-4.578125 33.07421875 -4.578125 33.07421875 -7.25 32.6875 C-8.14203125 32.56761719 -9.0340625 32.44773438 -9.953125 32.32421875 C-10.62859375 32.21722656 -11.3040625 32.11023438 -12 32 C-12 31.67 -12 31.34 -12 31 C-10.7625 30.87625 -9.525 30.7525 -8.25 30.625 C-4.79327201 30.2793272 -3.31109404 29.65554702 0 28 C0 18.76 0 9.52 0 0 Z " fill="#643F1C" transform="translate(204,117)"/>
<path d="M0 0 C0.66 0 1.32 0 2 0 C1.67 1.65 1.34 3.3 1 5 C1.99 5.33 2.98 5.66 4 6 C4 6.99 4 7.98 4 9 C5.423125 8.2265625 5.423125 8.2265625 6.875 7.4375 C7.90625 6.963125 8.9375 6.48875 10 6 C10.66 6.33 11.32 6.66 12 7 C9.8125 9.0625 9.8125 9.0625 7 11 C4.1875 10.75 4.1875 10.75 2 10 C2 9.01 2 8.02 2 7 C1.01 7 0.02 7 -1 7 C-1.33 8.32 -1.66 9.64 -2 11 C-2.66 11 -3.32 11 -4 11 C-4.33 9.02 -4.66 7.04 -5 5 C-4.01 5 -3.02 5 -2 5 C-1.34 3.35 -0.68 1.7 0 0 Z " fill="#824A15" transform="translate(207,191)"/>
<path d="M0 0 C0.33 0.99 0.66 1.98 1 3 C1.99 2.34 2.98 1.68 4 1 C4.99 1 5.98 1 7 1 C7 1.66 7 2.32 7 3 C6.01 3 5.02 3 4 3 C4 3.66 4 4.32 4 5 C4.99 5.33 5.98 5.66 7 6 C2.38 6 -2.24 6 -7 6 C-7 4.35 -7 2.7 -7 1 C-4.53721199 -0.231394 -2.7204945 -0.07159196 0 0 Z " fill="#794614" transform="translate(101,196)"/>
<path d="M0 0 C0.66 0 1.32 0 2 0 C1.34 1.65 0.68 3.3 0 5 C-8.58 5 -17.16 5 -26 5 C-22.69711664 2.79807776 -21.72537273 2.76040032 -17.89453125 2.8046875 C-16.91162109 2.81113281 -15.92871094 2.81757813 -14.91601562 2.82421875 C-13.89185547 2.84097656 -12.86769531 2.85773438 -11.8125 2.875 C-10.77673828 2.88402344 -9.74097656 2.89304688 -8.67382812 2.90234375 C-6.11565315 2.9259214 -3.55794252 2.9588297 -1 3 C-0.67 2.01 -0.34 1.02 0 0 Z " fill="#B6B7B8" transform="translate(111,151)"/>
<path d="M0 0 C0 1.32 0 2.64 0 4 C-7.68604474 4.97159933 -15.25863399 5.10920422 -23 5 C-23 4.67 -23 4.34 -23 4 C-22.30132812 3.86722656 -21.60265625 3.73445312 -20.8828125 3.59765625 C-19.51769531 3.33275391 -19.51769531 3.33275391 -18.125 3.0625 C-17.22007813 2.88847656 -16.31515625 2.71445313 -15.3828125 2.53515625 C-13.00043683 2.10036299 -13.00043683 2.10036299 -11 1 C-9.50529764 0.77412147 -8.00382898 0.59130069 -6.5 0.4375 C-5.7059375 0.35371094 -4.911875 0.26992187 -4.09375 0.18359375 C-2 0 -2 0 0 0 Z " fill="#D6D8DA" transform="translate(77,139)"/>
<path d="M0 0 C0 4.29 0 8.58 0 13 C-0.33 11.68 -0.66 10.36 -1 9 C-1.99 9 -2.98 9 -4 9 C-4 9.66 -4 10.32 -4 11 C-4.66 11 -5.32 11 -6 11 C-6.48951049 4.63636364 -6.48951049 4.63636364 -4.125 1.5625 C-2 0 -2 0 0 0 Z " fill="#F5F6F6" transform="translate(26,117)"/>
<path d="M0 0 C10.56 0 21.12 0 32 0 C32 0.33 32 0.66 32 1 C24.74 1.33 17.48 1.66 10 2 C10 2.33 10 2.66 10 3 C6.37 3 2.74 3 -1 3 C-0.67 2.01 -0.34 1.02 0 0 Z " fill="#262627" transform="translate(184,99)"/>
<path d="M0 0 C0 0.66 0 1.32 0 2 C-12.48519362 5.44419134 -12.48519362 5.44419134 -19 5 C-16.84618316 1.76927474 -15.8025995 1.2736301 -12.15234375 0.33984375 C-8.11809545 -0.29714282 -4.07044782 -0.14742065 0 0 Z " fill="#D0D1D3" transform="translate(66,103)"/>
<path d="M0 0 C1.18851563 0.00902344 2.37703125 0.01804688 3.6015625 0.02734375 C4.51679688 0.03894531 5.43203125 0.05054688 6.375 0.0625 C6.375 1.0525 6.375 2.0425 6.375 3.0625 C5.715 3.7225 5.055 4.3825 4.375 5.0625 C1.75 4.6875 1.75 4.6875 -0.625 4.0625 C-0.625 3.4025 -0.625 2.7425 -0.625 2.0625 C-2.605 2.0625 -4.585 2.0625 -6.625 2.0625 C-6.955 3.0525 -7.285 4.0425 -7.625 5.0625 C-8.285 5.0625 -8.945 5.0625 -9.625 5.0625 C-9.25 3.125 -9.25 3.125 -8.625 1.0625 C-5.74084117 -0.37957941 -3.20778472 -0.03144887 0 0 Z " fill="#6C3E12" transform="translate(228.625,196.9375)"/>
<path d="M0 0 C0.33 1.98 0.66 3.96 1 6 C-2.69541586 6.95024979 -5.30458414 6.95024979 -9 6 C-9 5.01 -9 4.02 -9 3 C-2.25 0 -2.25 0 0 0 Z " fill="#1D140D" transform="translate(119,196)"/>
<path d="M0 0 C0.99 0.33 1.98 0.66 3 1 C3 4.3 3 7.6 3 11 C1.35 11 -0.3 11 -2 11 C-2.4640625 9.5459375 -2.4640625 9.5459375 -2.9375 8.0625 C-3.69523342 5.15934208 -3.69523342 5.15934208 -5 4 C-7.32817964 3.63239269 -9.6618385 3.29758419 -12 3 C-12 2.67 -12 2.34 -12 2 C-4.5340751 1.63282337 -4.5340751 1.63282337 -2 3.375 C-1 5 -1 5 -1 7 C-0.34 7 0.32 7 1 7 C0.67 4.69 0.34 2.38 0 0 Z " fill="#4D3117" transform="translate(239,114)"/>
<path d="M0 0 C8.60764545 -0.46112386 16.61479306 1.27151563 25 3 C25 3.99 25 4.98 25 6 C24.28457031 5.79503906 23.56914062 5.59007813 22.83203125 5.37890625 C15.20939738 3.31793539 7.88033008 2.36859608 0 2 C0 1.34 0 0.68 0 0 Z " fill="#303131" transform="translate(219,70)"/>
<path d="M0 0 C0.99 0 1.98 0 3 0 C3.26554688 0.55429688 3.53109375 1.10859375 3.8046875 1.6796875 C4.15789062 2.40414062 4.51109375 3.12859375 4.875 3.875 C5.22304687 4.59429687 5.57109375 5.31359375 5.9296875 6.0546875 C6.96557543 8.15135019 6.96557543 8.15135019 9 10 C5.625 10.125 5.625 10.125 2 10 C0 8 0 8 -0.1953125 6.0546875 C-0.13020833 4.03645833 -0.06510417 2.01822917 0 0 Z " fill="#B36D2B" transform="translate(220,140)"/>
<path d="M0 0 C2.93804996 -0.08086376 5.87388075 -0.1404283 8.8125 -0.1875 C9.64587891 -0.21263672 10.47925781 -0.23777344 11.33789062 -0.26367188 C12.54155273 -0.27817383 12.54155273 -0.27817383 13.76953125 -0.29296875 C14.87711792 -0.31653442 14.87711792 -0.31653442 16.00708008 -0.34057617 C18 0 18 0 21 3 C14.07 2.67 7.14 2.34 0 2 C0 1.34 0 0.68 0 0 Z " fill="#C7C8CA" transform="translate(214,72)"/>
<path d="M0 0 C0.99 0.33 1.98 0.66 3 1 C2.34 7.93 1.68 14.86 1 22 C0.67 22 0.34 22 0 22 C-0.33 19.36 -0.66 16.72 -1 14 C-1.33 14 -1.66 14 -2 14 C-2.1799928 8.78020872 -1.97094808 4.92737019 0 0 Z " fill="#878788" transform="translate(126,142)"/>
<path d="M0 0 C0 0.33 0 0.66 0 1 C-0.99902344 1.06058594 -1.99804688 1.12117188 -3.02734375 1.18359375 C-4.31769531 1.26738281 -5.60804688 1.35117188 -6.9375 1.4375 C-8.22527344 1.51871094 -9.51304687 1.59992188 -10.83984375 1.68359375 C-13.86023957 1.64919188 -13.86023957 1.64919188 -15 3 C-17.69654854 3.07319621 -20.36691458 3.09242537 -23.0625 3.0625 C-23.82111328 3.05798828 -24.57972656 3.05347656 -25.36132812 3.04882812 C-27.24091871 3.0370068 -29.12046899 3.01907078 -31 3 C-31 2.67 -31 2.34 -31 2 C-20.56612375 0.32098543 -10.554717 -0.24965165 0 0 Z " fill="#3E3F3F" transform="translate(180,70)"/>
<path d="M0 0 C2.60909589 2.60909589 2.26108967 4.46726316 2.2734375 8.0234375 C2.26183594 9.18746094 2.26183594 9.18746094 2.25 10.375 C2.25773438 11.14328125 2.26546875 11.9115625 2.2734375 12.703125 C2.27085937 13.44820312 2.26828125 14.19328125 2.265625 14.9609375 C2.26336914 15.63946777 2.26111328 16.31799805 2.25878906 17.01708984 C1.95608702 19.33647284 1.14048018 20.97329764 0 23 C-0.19635974 19.54210946 -0.38058252 16.08367803 -0.5625 12.625 C-0.61857422 11.64015625 -0.67464844 10.6553125 -0.73242188 9.640625 C-0.80493164 8.22910156 -0.80493164 8.22910156 -0.87890625 6.7890625 C-0.9260376 5.91975098 -0.97316895 5.05043945 -1.02172852 4.15478516 C-1 2 -1 2 0 0 Z " fill="#7A7B7C" transform="translate(165,136)"/>
<path d="M0 0 C0.66 0.33 1.32 0.66 2 1 C1.67 1.66 1.34 2.32 1 3 C2.32 3.33 3.64 3.66 5 4 C3.71475739 4.86380259 2.42157581 5.71580369 1.125 6.5625 C0.40570313 7.03816406 -0.31359375 7.51382813 -1.0546875 8.00390625 C-1.69664063 8.33261719 -2.33859375 8.66132812 -3 9 C-3.66 8.67 -4.32 8.34 -5 8 C-5 7.01 -5 6.02 -5 5 C-5.66 4.67 -6.32 4.34 -7 4 C-1.7265625 0.77734375 -1.7265625 0.77734375 0 0 Z " fill="#C6C7C9" transform="translate(117,78)"/>
<path d="M0 0 C0.99 0.33 1.98 0.66 3 1 C1.35 3.64 -0.3 6.28 -2 9 C0.97 9 3.94 9 7 9 C3.38863788 10.80568106 2.455469 11.24851563 -1.25 11.125 C-3.10625 11.063125 -3.10625 11.063125 -5 11 C-4.46884894 6.48521602 -2.63379708 3.65333143 0 0 Z " fill="#844A13" transform="translate(84,191)"/>
<path d="M0 0 C5.7097955 0.41778991 8.60957142 2.57546571 13 6 C12.01 7.485 12.01 7.485 11 9 C9.34793553 8.07352464 7.7035003 7.13343426 6.0625 6.1875 C5.14597656 5.66542969 4.22945312 5.14335938 3.28515625 4.60546875 C1 3 1 3 0 0 Z " fill="#CDCED0" transform="translate(251,81)"/>
<path d="M0 0 C0.99 0 1.98 0 3 0 C3.125 3.375 3.125 3.375 3 7 C2.34 7.66 1.68 8.32 1 9 C0.3574765 11.06874034 0.3574765 11.06874034 0 13 C2.31 13 4.62 13 7 13 C7 13.33 7 13.66 7 14 C4.36 14 1.72 14 -1 14 C-1.027193 12.41676312 -1.04648306 10.83338938 -1.0625 9.25 C-1.07410156 8.36828125 -1.08570312 7.4865625 -1.09765625 6.578125 C-1.00826198 4.2181162 -0.66912821 2.25501476 0 0 Z " fill="#525253" transform="translate(21,146)"/>
<path d="M0 0 C-0.33 2.64 -0.66 5.28 -1 8 C-3.31 7.34 -5.62 6.68 -8 6 C-8 4.68 -8 3.36 -8 2 C-2.25 0 -2.25 0 0 0 Z " fill="#CDCECF" transform="translate(120,127)"/>
<path d="M0 0 C0.66 0.33 1.32 0.66 2 1 C1.34 3.97 0.68 6.94 0 10 C0.66 10 1.32 10 2 10 C2.05391993 11.79133978 2.09275571 13.58313899 2.125 15.375 C2.14820313 16.37273437 2.17140625 17.37046875 2.1953125 18.3984375 C2 21 2 21 0 23 C-0.99306552 15.67614181 -1.37395662 8.39114253 -1 1 C-0.67 0.67 -0.34 0.34 0 0 Z " fill="#515251" transform="translate(28,117)"/>
<path d="M0 0 C1.02200151 3.06600453 1.37955141 4.81176817 1 8 C-0.875 10.8125 -0.875 10.8125 -3 13 C-3.66 13 -4.32 13 -5 13 C-4.67 11.68 -4.34 10.36 -4 9 C-4.66 8.67 -5.32 8.34 -6 8 C-4.02 5.36 -2.04 2.72 0 0 Z " fill="#363637" transform="translate(186,84)"/>
<path d="M0 0 C0.33 0 0.66 0 1 0 C1 2.64 1 5.28 1 8 C1.66 7.67 2.32 7.34 3 7 C5.71760108 6.92818179 8.40859388 6.90700494 11.125 6.9375 C11.87910156 6.94201172 12.63320313 6.94652344 13.41015625 6.95117188 C15.27347127 6.96296501 17.13674555 6.98090058 19 7 C19 7.33 19 7.66 19 8 C14.545 8.495 14.545 8.495 10 9 C10 9.33 10 9.66 10 10 C6.7 10 3.4 10 0 10 C0 6.7 0 3.4 0 0 Z " fill="#B5B6B7" transform="translate(17,153)"/>
<path d="M0 0 C-2.92181547 1.57224712 -5.74051726 2.56559562 -8.9375 3.4375 C-12.67716868 4.52018104 -15.78034825 5.74624377 -19 8 C-17.45124165 4.6812321 -16.32891264 2.53391711 -12.79296875 1.11328125 C-11.93316406 0.84902344 -11.07335937 0.58476563 -10.1875 0.3125 C-9.33542969 0.04050781 -8.48335937 -0.23148437 -7.60546875 -0.51171875 C-4.74216525 -1.04831986 -2.79320318 -0.74719439 0 0 Z " fill="#C4C6C6" transform="translate(121,116)"/>
<path d="M0 0 C0.66 0 1.32 0 2 0 C4.44989101 3.74235319 4.23086143 7.44225419 4.125 11.75 C4.11597656 12.44738281 4.10695312 13.14476562 4.09765625 13.86328125 C4.07419888 15.57566958 4.03833104 17.28788004 4 19 C0.59704588 15.46019786 0.4674355 11.93347893 0.3125 7.25 C0.27833984 6.55261719 0.24417969 5.85523438 0.20898438 5.13671875 C0.12691705 3.42502892 0.06177081 1.7125424 0 0 Z " fill="#BBBCBE" transform="translate(158,138)"/>
<path d="M0 0 C0.99 0 1.98 0 3 0 C3 0.66 3 1.32 3 2 C2.34 2 1.68 2 1 2 C1.33 3.65 1.66 5.3 2 7 C1.01 7.33 0.02 7.66 -1 8 C-1.33 8.99 -1.66 9.98 -2 11 C-2.66 11 -3.32 11 -4 11 C-4.33 9.02 -4.66 7.04 -5 5 C-4.01 5 -3.02 5 -2 5 C-1.34 3.35 -0.68 1.7 0 0 Z " fill="#7B4713" transform="translate(124,191)"/>
<path d="M0 0 C0.33 0 0.66 0 1 0 C1.19555932 2.72880461 1.38170447 5.45771069 1.5625 8.1875 C1.61857422 8.95642578 1.67464844 9.72535156 1.73242188 10.51757812 C1.99141557 14.54061353 2.06573607 18.06072372 1 22 C0.01 21.34 -0.98 20.68 -2 20 C-1.34 13.4 -0.68 6.8 0 0 Z " fill="#343435" transform="translate(162,144)"/>
<path d="M0 0 C1.32 0.66 2.64 1.32 4 2 C3.50628906 2.30292969 3.01257813 2.60585937 2.50390625 2.91796875 C-1.69897215 5.548514 -1.69897215 5.548514 -3.9375 9.8125 C-3.958125 10.534375 -3.97875 11.25625 -4 12 C-4.66 11.34 -5.32 10.68 -6 10 C-5.9375 7.125 -5.9375 7.125 -5 4 C-2.4375 1.625 -2.4375 1.625 0 0 Z " fill="#C2C3C5" transform="translate(125,117)"/>
<path d="M0 0 C0.125 7.75 0.125 7.75 -1 10 C-1.99 10 -2.98 10 -4 10 C-3.67 7.03 -3.34 4.06 -3 1 C-3.99 0.67 -4.98 0.34 -6 0 C-3 -1 -3 -1 0 0 Z " fill="#C6C8C7" transform="translate(27,145)"/>
<path d="M0 0 C0.66 0.33 1.32 0.66 2 1 C2.31241371 3.54941373 2.51303421 6.00361513 2.625 8.5625 C2.66367187 9.27341797 2.70234375 9.98433594 2.7421875 10.71679688 C2.83671783 12.47742425 2.91945817 14.23867728 3 16 C1.35 16 -0.3 16 -2 16 C-1.34 15.67 -0.68 15.34 0 15 C0 10.05 0 5.1 0 0 Z " fill="#F09237" transform="translate(256,133)"/>
<path d="M0 0 C1.98 0 3.96 0 6 0 C6 0.33 6 0.66 6 1 C9.3 1.33 12.6 1.66 16 2 C16 2.33 16 2.66 16 3 C9.28837062 3.88021369 2.76594019 4.11381955 -4 4 C-2.68 3.34 -1.36 2.68 0 2 C0 1.34 0 0.68 0 0 Z " fill="#D1D2D4" transform="translate(136,72)"/>
<path d="M0 0 C3.3 0 6.6 0 10 0 C10 0.99 10 1.98 10 3 C7.36 3.33 4.72 3.66 2 4 C1.34 2.68 0.68 1.36 0 0 Z " fill="#F5F7F8" transform="translate(130,112)"/>
<path d="M0 0 C0 0.33 0 0.66 0 1 C-2.06172613 1.33808686 -4.1244203 1.67027361 -6.1875 2 C-7.91033203 2.2784375 -7.91033203 2.2784375 -9.66796875 2.5625 C-12.50415393 2.93489477 -15.14719564 3.08596021 -18 3 C-12.83645943 -2.16354057 -6.62495595 -0.96886708 0 0 Z " fill="#9A9C9D" transform="translate(102,145)"/>
<path d="M0 0 C-0.33 0.639375 -0.66 1.27875 -1 1.9375 C-2.07271225 3.76794567 -2.07271225 3.76794567 -2 5 C-5.3 5.33 -8.6 5.66 -12 6 C-9.51338724 -0.92699268 -6.80769872 -0.10980159 0 0 Z " fill="#444445" transform="translate(151,125)"/>
<path d="M0 0 C2.05078125 0.03255208 4.1015625 0.06510417 6.15234375 0.09765625 C6.15234375 0.75765625 6.15234375 1.41765625 6.15234375 2.09765625 C3.84234375 2.09765625 1.53234375 2.09765625 -0.84765625 2.09765625 C-0.84765625 2.75765625 -0.84765625 3.41765625 -0.84765625 4.09765625 C0.80234375 3.76765625 2.45234375 3.43765625 4.15234375 3.09765625 C3.82234375 3.75765625 3.49234375 4.41765625 3.15234375 5.09765625 C0.84234375 5.09765625 -1.46765625 5.09765625 -3.84765625 5.09765625 C-2.72914438 0.14424653 -2.72914438 0.14424653 0 0 Z " fill="#834B15" transform="translate(157.84765625,196.90234375)"/>
<path d="M0 0 C0.66 0 1.32 0 2 0 C2.33 0.66 2.66 1.32 3 2 C6.02934491 2.65772428 6.02934491 2.65772428 9 3 C8.67 4.32 8.34 5.64 8 7 C4.7 6.67 1.4 6.34 -2 6 C-0.68 5.34 0.64 4.68 2 4 C1.34 2.68 0.68 1.36 0 0 Z " fill="#623D1B" transform="translate(225,145)"/>
<path d="M0 0 C-3.28831214 1.70668549 -6.61012149 2.98706786 -10.09765625 4.21875 C-12.27068726 5.03816029 -12.27068726 5.03816029 -15 7 C-15 6.01 -15 5.02 -15 4 C-10.15425142 -0.34874873 -6.16482758 -0.49318621 0 0 Z " fill="#ACAEB0" transform="translate(151,123)"/>
<path d="M0 0 C0.8971875 0.309375 0.8971875 0.309375 1.8125 0.625 C1.11125 1.016875 0.41 1.40875 -0.3125 1.8125 C-3.54824432 3.85242577 -6.29007782 6.13186929 -9.1875 8.625 C-9.875 6.8125 -9.875 6.8125 -10.1875 4.625 C-8.875 2.875 -8.875 2.875 -7.1875 1.625 C-6.5275 1.625 -5.8675 1.625 -5.1875 1.625 C-2.1875 -0.375 -2.1875 -0.375 0 0 Z " fill="#272828" transform="translate(109.1875,120.375)"/>
<path d="M0 0 C8 -0.46153846 8 -0.46153846 11.4375 1.125 C13.47032662 3.56439194 14.18820936 5.95578511 15 9 C14.38125 8.38511719 14.38125 8.38511719 13.75 7.7578125 C9.31112428 3.61618292 5.97518721 2.04827846 0 1 C0 0.67 0 0.34 0 0 Z " fill="#B1B2B3" transform="translate(143,128)"/>
<path d="M0 0 C0 3.41099168 -0.49145406 6.63088314 -1 10 C-0.34 10 0.32 10 1 10 C0.67 14.29 0.34 18.58 0 23 C-0.33 23 -0.66 23 -1 23 C-1.92504768 16.06214241 -2.64375621 8.99402934 -2 2 C-1.34 1.34 -0.68 0.68 0 0 Z " fill="#A8A8A9" transform="translate(21,118)"/>
<path d="M0 0 C0.66 0.33 1.32 0.66 2 1 C0.83917375 4.48247874 0.09067524 4.88819244 -2.9375 6.75 C-3.64777344 7.19859375 -4.35804687 7.6471875 -5.08984375 8.109375 C-5.72019531 8.40328125 -6.35054688 8.6971875 -7 9 C-7.66 8.67 -8.32 8.34 -9 8 C-8.01 7.34 -7.02 6.68 -6 6 C-6.33 5.34 -6.66 4.68 -7 4 C-1.7265625 0.77734375 -1.7265625 0.77734375 0 0 Z " fill="#717273" transform="translate(112,84)"/>
<path d="M0 0 C2.97 0 5.94 0 9 0 C8.35546875 0.34675781 7.7109375 0.69351563 7.046875 1.05078125 C4.07528032 3.88060137 4.39764736 6.1641093 4.25 10.1875 C4.19328125 11.45980469 4.1365625 12.73210937 4.078125 14.04296875 C4.05234375 15.01878906 4.0265625 15.99460938 4 17 C3.67 17 3.34 17 3 17 C3 12.05 3 7.1 3 2 C2.01 1.67 1.02 1.34 0 1 C0 0.67 0 0.34 0 0 Z " fill="#F09137" transform="translate(253,115)"/>
<path d="M0 0 C0 0.99 0 1.98 0 3 C-0.66 3.66 -1.32 4.32 -2 5 C-2 5.99 -2 6.98 -2 8 C-4.25 9.125 -4.25 9.125 -7 10 C-9.3125 9.125 -9.3125 9.125 -11 8 C-9.948125 7.690625 -9.948125 7.690625 -8.875 7.375 C-5.04274884 5.54218423 -2.89547493 3.09748481 0 0 Z " fill="#B7B7BA" transform="translate(176,91)"/>
<path d="M0 0 C4.62 0 9.24 0 14 0 C14 0.33 14 0.66 14 1 C10.37 1 6.74 1 3 1 C3 1.66 3 2.32 3 3 C3.66 3.33 4.32 3.66 5 4 C2.69 4.33 0.38 4.66 -2 5 C-1.34 3.35 -0.68 1.7 0 0 Z " fill="#F2F4F5" transform="translate(133,71)"/>
<path d="M0 0 C4.62 2.31 9.24 4.62 14 7 C9.82366356 8.39211215 8.21039485 6.9535579 4.3125 5.0625 C3.13300781 4.49660156 1.95351563 3.93070312 0.73828125 3.34765625 C-0.16535156 2.90292969 -1.06898438 2.45820312 -2 2 C-1.34 1.34 -0.68 0.68 0 0 Z " fill="#5F6062" transform="translate(262,79)"/>
<path d="M0 0 C0.33 0.99 0.66 1.98 1 3 C-0.62319675 4.31472947 -2.248615 5.62671662 -3.875 6.9375 C-4.77992188 7.66839844 -5.68484375 8.39929688 -6.6171875 9.15234375 C-9 11 -9 11 -11 12 C-9.49650623 8.33213607 -7.36271208 6.31089607 -4.375 3.75 C-3.14910156 2.69039063 -3.14910156 2.69039063 -1.8984375 1.609375 C-1.27195313 1.07828125 -0.64546875 0.5471875 0 0 Z " fill="#78797A" transform="translate(197,79)"/>
<path d="M0 0 C1.32 0.66 2.64 1.32 4 2 C1.69 3.65 -0.62 5.3 -3 7 C-3.66 6.67 -4.32 6.34 -5 6 C-3.63016497 2.83884224 -3.0109362 2.0072908 0 0 Z " fill="#39383A" transform="translate(82,147)"/>
<path d="M0 0 C0.33 1.32 0.66 2.64 1 4 C0.34 4 -0.32 4 -1 4 C-1.15149298 7.62885324 -1.15149298 7.62885324 0 11 C-0.99 11.99 -1.98 12.98 -3 14 C-3 13.01 -3 12.02 -3 11 C-3.66 10.67 -4.32 10.34 -5 10 C-3.35 6.7 -1.7 3.4 0 0 Z " fill="#9A9B9C" transform="translate(80,128)"/>
<path d="M0 0 C0.66 0 1.32 0 2 0 C1.88590407 1.45922693 1.75834456 2.91740598 1.625 4.375 C1.55539063 5.18710938 1.48578125 5.99921875 1.4140625 6.8359375 C1 9 1 9 -1 11 C-1.66 10.34 -2.32 9.68 -3 9 C-2.01 6.03 -1.02 3.06 0 0 Z " fill="#3C3C3D" transform="translate(113,134)"/>
<path d="M0 0 C1.65 0 3.3 0 5 0 C5 0.99 5 1.98 5 3 C4.34 3 3.68 3 3 3 C3 3.66 3 4.32 3 5 C1.35 4.67 -0.3 4.34 -2 4 C-1.34 2.68 -0.68 1.36 0 0 Z " fill="#935314" transform="translate(167,197)"/>
<path d="M0 0 C0.66 0 1.32 0 2 0 C3.65 2.97 5.3 5.94 7 9 C6.01 9 5.02 9 4 9 C0.8217901 5.7309841 0 4.67834007 0 0 Z " fill="#333335" transform="translate(131,165)"/>
<path d="M0 0 C-4.455 2.97 -4.455 2.97 -9 6 C-9.33 5.34 -9.66 4.68 -10 4 C-4.4 -2.2 -4.4 -2.2 0 0 Z " fill="#D3D5D4" transform="translate(114,83)"/>
<path d="M0 0 C1.32 0 2.64 0 4 0 C4 0.66 4 1.32 4 2 C3.34 2 2.68 2 2 2 C2 4.64 2 7.28 2 10 C1.34 10 0.68 10 0 10 C0 6.7 0 3.4 0 0 Z " fill="#3A2513" transform="translate(218,138)"/>
<path d="M0 0 C7.38461538 -0.36923077 7.38461538 -0.36923077 10.5 1.5 C10.995 1.995 11.49 2.49 12 3 C11.67 3.66 11.34 4.32 11 5 C7.27566618 3.7874262 3.62197194 2.49140021 0 1 C0 0.67 0 0.34 0 0 Z " fill="#B5B6B8" transform="translate(241,78)"/>
<path d="M0 0 C0.33 1.32 0.66 2.64 1 4 C-1.31 4 -3.62 4 -6 4 C-6 3.01 -6 2.02 -6 1 C-4 0 -4 0 0 0 Z " fill="#945515" transform="translate(116,198)"/>
<path d="M0 0 C0 0.99 0 1.98 0 3 C-0.66 3.66 -1.32 4.32 -2 5 C-3.32 5 -4.64 5 -6 5 C-6 3.68 -6 2.36 -6 1 C-4 0 -4 0 0 0 Z " fill="#9E5915" transform="translate(235,197)"/>
<path d="M0 0 C2 3.75 2 3.75 2 6 C1.34 6 0.68 6 0 6 C-0.66 7.32 -1.32 8.64 -2 10 C-2.66 9.67 -3.32 9.34 -4 9 C-3.52418802 7.68628013 -3.04424851 6.37405454 -2.5625 5.0625 C-2.29566406 4.33160156 -2.02882812 3.60070312 -1.75390625 2.84765625 C-1 1 -1 1 0 0 Z " fill="#ABAEAF" transform="translate(156,163)"/>
<path d="M0 0 C0.556875 0.226875 1.11375 0.45375 1.6875 0.6875 C0.6875 2.6875 0.6875 2.6875 -1.37890625 3.5390625 C-2.61447266 3.92191406 -2.61447266 3.92191406 -3.875 4.3125 C-4.70128906 4.57289062 -5.52757812 4.83328125 -6.37890625 5.1015625 C-7.01699219 5.29492188 -7.65507812 5.48828125 -8.3125 5.6875 C-7.3125 2.6875 -7.3125 2.6875 -5 0.9375 C-2.3125 -0.3125 -2.3125 -0.3125 0 0 Z " fill="#A2A3A5" transform="translate(206.3125,75.3125)"/>
<path d="M0 0 C1.98 0 3.96 0 6 0 C5.34 1.98 4.68 3.96 4 6 C2.68 5.34 1.36 4.68 0 4 C0 2.68 0 1.36 0 0 Z " fill="#4F3012" transform="translate(196,196)"/>
<path d="M0 0 C0 1.98 0 3.96 0 6 C-0.515625 5.525625 -1.03125 5.05125 -1.5625 4.5625 C-4.66782675 2.57190593 -7.36632504 2.34939182 -11 2 C-11 1.67 -11 1.34 -11 1 C-9.54182203 0.83197949 -8.0834516 0.66562857 -6.625 0.5 C-5.81289063 0.4071875 -5.00078125 0.314375 -4.1640625 0.21875 C-2 0 -2 0 0 0 Z " fill="#A9682A" transform="translate(271,130)"/>
<path d="M0 0 C1.32 0 2.64 0 4 0 C4 3.51716303 3.17554415 4.37121748 1 7 C0.67 6.34 0.34 5.68 0 5 C-0.99 5.495 -0.99 5.495 -2 6 C-1.34 4.02 -0.68 2.04 0 0 Z " fill="#A3A4A6" transform="translate(83,122)"/>
<path d="M0 0 C1.98 0 3.96 0 6 0 C6 1.98 6 3.96 6 6 C5.34 6 4.68 6 4 6 C2.61061923 4.03852126 1.2739589 2.03833424 0 0 Z " fill="#C97A30" transform="translate(234,115)"/>
<path d="M0 0 C-5.625 4 -5.625 4 -9 4 C-8.67 2.68 -8.34 1.36 -8 0 C-2.25 -1.125 -2.25 -1.125 0 0 Z " fill="#D9DADA" transform="translate(36,113)"/>
<path d="M0 0 C6.75 0.875 6.75 0.875 9 2 C9 2.66 9 3.32 9 4 C6.75 4.25 6.75 4.25 4 4 C1.6875 2 1.6875 2 0 0 Z " fill="#242424" transform="translate(243,74)"/>
<path d="M0 0 C2 4 2 4 1.8125 6.0625 C1 8 1 8 -2 11 C-1.34 7.37 -0.68 3.74 0 0 Z " fill="#CACCCF" transform="translate(158,157)"/>
<path d="M0 0 C0.99 0.2165625 0.99 0.2165625 2 0.4375 C5.65599551 1.12299916 9.30622195 1.56175515 13 2 C13 2.33 13 2.66 13 3 C9.04 3 5.08 3 1 3 C0.67 2.01 0.34 1.02 0 0 Z " fill="#CE7D31" transform="translate(187,147)"/>
<path d="M0 0 C1.485 0.99 1.485 0.99 3 2 C1.92598892 4.91517292 1.22189824 6.77810176 -1 9 C-1.125 2.25 -1.125 2.25 0 0 Z " fill="#98999B" transform="translate(128,136)"/>
<path d="M0 0 C0.66 0.33 1.32 0.66 2 1 C1.030625 1.721875 0.06125 2.44375 -0.9375 3.1875 C-3.29913506 5.13237593 -3.93412331 5.7882535 -4.875 8.8125 C-4.91625 9.534375 -4.9575 10.25625 -5 11 C-5.66 10.67 -6.32 10.34 -7 10 C-5.76075855 5.04303419 -4.21422242 2.88341534 0 0 Z " fill="#454546" transform="translate(127,119)"/>
<path d="M0 0 C1.8871875 0.0309375 1.8871875 0.0309375 3.8125 0.0625 C-0.59389354 2.26569677 -3.16200871 3.17174981 -8.1875 3.0625 C-6.45706736 -0.39836529 -3.47359009 -0.0569441 0 0 Z " fill="#DCDDDF" transform="translate(126.1875,112.9375)"/>
<path d="M0 0 C-2 2 -4 4 -6 6 C-6.66 5.67 -7.32 5.34 -8 5 C-8 4.01 -8 3.02 -8 2 C-3.71900826 -1.23966942 -3.71900826 -1.23966942 0 0 Z " fill="#474749" transform="translate(107,90)"/>
<path d="M0 0 C0 0.99 0 1.98 0 3 C-3.33333333 6 -3.33333333 6 -6 6 C-5.25 3.5625 -5.25 3.5625 -4 1 C-1.875 0.1875 -1.875 0.1875 0 0 Z " fill="#D2D3D5" transform="translate(94,93)"/>
<path d="M0 0 C0 1.65 0 3.3 0 5 C-0.66 5 -1.32 5 -2 5 C-2 4.01 -2 3.02 -2 2 C-3.65 2.33 -5.3 2.66 -7 3 C-7 2.34 -7 1.68 -7 1 C-4 0 -4 0 0 0 Z " fill="#834A13" transform="translate(146,197)"/>
<path d="M0 0 C0.66 0 1.32 0 2 0 C2 0.66 2 1.32 2 2 C3.32 2 4.64 2 6 2 C5.67 3.32 5.34 4.64 5 6 C2.525 5.01 2.525 5.01 0 4 C0 2.68 0 1.36 0 0 Z " fill="#F1F3F4" transform="translate(112,129)"/>
<path d="M0 0 C0 0.99 0 1.98 0 3 C-3.3 2.34 -6.6 1.68 -10 1 C-5.64467851 -1.17766075 -4.53374042 -1.03039555 0 0 Z " fill="#444545" transform="translate(244,73)"/>
<path d="M0 0 C0.66 0 1.32 0 2 0 C2 0.66 2 1.32 2 2 C3.98 1.67 5.96 1.34 8 1 C6.8125 2.5625 6.8125 2.5625 5 4 C2.3125 3.6875 2.3125 3.6875 0 3 C0 2.01 0 1.02 0 0 Z " fill="#7F4913" transform="translate(180,197)"/>
<path d="M0 0 C1.98 0.99 1.98 0.99 4 2 C3.67 3.32 3.34 4.64 3 6 C2.01 6 1.02 6 0 6 C0 4.02 0 2.04 0 0 Z " fill="#523013" transform="translate(126,196)"/>
<path d="M0 0 C-0.33 1.32 -0.66 2.64 -1 4 C-2.32 4 -3.64 4 -5 4 C-5.33 3.01 -5.66 2.02 -6 1 C-4 0 -4 0 0 0 Z " fill="#593413" transform="translate(137,196)"/>
<path d="M0 0 C1 4 1 4 1 8 C-0.32 8.33 -1.64 8.66 -3 9 C-2.01 6.03 -1.02 3.06 0 0 Z " fill="#AAABAD" transform="translate(113,143)"/>
<path d="M0 0 C0.99 0 1.98 0 3 0 C3.33 2.64 3.66 5.28 4 8 C3.34 8 2.68 8 2 8 C1.87625 7.030625 1.7525 6.06125 1.625 5.0625 C1.41875 4.051875 1.2125 3.04125 1 2 C0.34 1.67 -0.32 1.34 -1 1 C-0.67 0.67 -0.34 0.34 0 0 Z " fill="#BB722D" transform="translate(223,117)"/>
<path d="M0 0 C2.625 0.375 2.625 0.375 5 1 C4.443125 1.268125 3.88625 1.53625 3.3125 1.8125 C0.80287477 3.10122647 -1.59334236 4.52926478 -4 6 C-2.84826645 3.53199953 -1.95216435 1.95216435 0 0 Z " fill="#8A8E8F" transform="translate(106,118)"/>
<path d="M0 0 C4.12751449 0.60698743 7.3321148 2.03810791 11 4 C11 4.33 11 4.66 11 5 C6.1948447 5.56531239 3.75696103 3.88324916 0 1 C0 0.67 0 0.34 0 0 Z " fill="#2C2D2E" transform="translate(285,93)"/>
<path d="M0 0 C0.33 1.98 0.66 3.96 1 6 C-0.32 6.33 -1.64 6.66 -3 7 C-2.67 5.68 -2.34 4.36 -2 3 C-2.99 2.67 -3.98 2.34 -5 2 C-2 0 -2 0 0 0 Z " fill="#A0A1A2" transform="translate(115,80)"/>
<path d="M0 0 C1.32 0.66 2.64 1.32 4 2 C3.34 2 2.68 2 2 2 C2 2.99 2 3.98 2 5 C0.35 4.67 -1.3 4.34 -3 4 C-3 3.34 -3 2.68 -3 2 C-2.01 2 -1.02 2 0 2 C0 1.34 0 0.68 0 0 Z " fill="#2C1C0F" transform="translate(108,197)"/>
<path d="M0 0 C-3.99560608 2.83022097 -7.42737323 1.76210446 -12 1 C-12 0.67 -12 0.34 -12 0 C-3.42857143 -1.28571429 -3.42857143 -1.28571429 0 0 Z " fill="#915924" transform="translate(204,148)"/>
<path d="M0 0 C0.66 0.99 1.32 1.98 2 3 C1.125 6.1875 1.125 6.1875 0 9 C-0.66 8.34 -1.32 7.68 -2 7 C-1.43181818 1.43181818 -1.43181818 1.43181818 0 0 Z " fill="#ADB0B0" transform="translate(121,120)"/>
<path d="M0 0 C0.66 1.32 1.32 2.64 2 4 C1.01 4.99 0.02 5.98 -1 7 C-1 6.34 -1 5.68 -1 5 C-1.66 5 -2.32 5 -3 5 C-2.67 4.01 -2.34 3.02 -2 2 C-1.34 2 -0.68 2 0 2 C0 1.34 0 0.68 0 0 Z " fill="#C2C4C5" transform="translate(188,77)"/>
<path d="M0 0 C2.31 0 4.62 0 7 0 C5.25 3.875 5.25 3.875 3 5 C3 3.68 3 2.36 3 1 C2.01 0.67 1.02 0.34 0 0 Z " fill="#DFE1E2" transform="translate(187,74)"/>
</svg>
